<?xml version="1.0" standalone="no"?><!-- Generator: Gravit.io --><svg xmlns="http://www.w3.org/2000/svg" xmlns:xlink="http://www.w3.org/1999/xlink" style="isolation:isolate" viewBox="0 0 20 20" width="20" height="20"><defs><clipPath id="_clipPath_DWp1FrtgK74YuhrzCwBaFlP4E2ATEVGT"><rect width="20" height="20"/></clipPath></defs><g clip-path="url(#_clipPath_DWp1FrtgK74YuhrzCwBaFlP4E2ATEVGT)"><path d=" M 9.402 2.296 L 6.5 5.2 C 6.304 5.388 6.225 5.667 6.294 5.93 C 6.362 6.193 6.567 6.398 6.83 6.467 C 7.093 6.535 7.372 6.456 7.561 6.26 L 9.25 4.571 L 9.25 17.241 C 9.246 17.511 9.388 17.763 9.622 17.899 C 9.856 18.036 10.144 18.036 10.378 17.899 C 10.612 17.763 10.754 17.511 10.75 17.241 L 10.75 4.571 L 12.439 6.26 C 12.628 6.456 12.907 6.535 13.17 6.467 C 13.433 6.398 13.638 6.193 13.706 5.93 C 13.775 5.667 13.696 5.388 13.5 5.2 L 10.598 2.296 C 10.578 2.269 10.555 2.243 10.53 2.218 C 10.387 2.075 10.191 1.995 9.988 1.999 C 9.789 2.002 9.6 2.084 9.461 2.227 C 9.44 2.249 9.42 2.272 9.402 2.296 Z " fill="rgb(0,0,0)"/></g></svg>