<?xml version="1.0" standalone="no"?><!-- Generator: Gravit.io --><svg xmlns="http://www.w3.org/2000/svg" xmlns:xlink="http://www.w3.org/1999/xlink" style="isolation:isolate" viewBox="0 0 20 20" width="20" height="20"><defs><clipPath id="_clipPath_lzEtKhJsdfvCd4vpfcTuklWN6I2hTOuG"><rect width="20" height="20"/></clipPath></defs><g clip-path="url(#_clipPath_lzEtKhJsdfvCd4vpfcTuklWN6I2hTOuG)"><path d=" M 17.704 9.402 L 14.8 6.5 C 14.612 6.304 14.333 6.225 14.07 6.294 C 13.807 6.362 13.602 6.567 13.533 6.83 C 13.465 7.093 13.544 7.372 13.74 7.561 L 15.429 9.25 L 2.759 9.25 C 2.489 9.246 2.237 9.388 2.101 9.622 C 1.964 9.856 1.964 10.144 2.101 10.378 C 2.237 10.612 2.489 10.754 2.759 10.75 L 15.429 10.75 L 13.74 12.439 C 13.544 12.628 13.465 12.907 13.533 13.17 C 13.602 13.433 13.807 13.638 14.07 13.706 C 14.333 13.775 14.612 13.696 14.8 13.5 L 17.704 10.598 C 17.731 10.578 17.757 10.555 17.782 10.53 C 17.925 10.387 18.005 10.191 18.001 9.988 C 17.998 9.789 17.916 9.6 17.773 9.461 C 17.751 9.44 17.728 9.42 17.704 9.402 Z " fill="rgb(0,0,0)"/></g></svg>