<?xml version="1.0" standalone="no"?><!-- Generator: Gravit.io --><svg xmlns="http://www.w3.org/2000/svg" xmlns:xlink="http://www.w3.org/1999/xlink" style="isolation:isolate" viewBox="0 0 20 20" width="20" height="20"><defs><clipPath id="_clipPath_zPFhu9RGoqz7EgF4FDeWSwjrRYbey3hP"><rect width="20" height="20"/></clipPath></defs><g clip-path="url(#_clipPath_zPFhu9RGoqz7EgF4FDeWSwjrRYbey3hP)"><path d=" M 2.296 10.598 L 5.2 13.5 C 5.388 13.696 5.667 13.775 5.93 13.706 C 6.193 13.638 6.398 13.433 6.467 13.17 C 6.535 12.907 6.456 12.628 6.26 12.439 L 4.571 10.75 L 17.241 10.75 C 17.511 10.754 17.763 10.612 17.899 10.378 C 18.036 10.144 18.036 9.856 17.899 9.622 C 17.763 9.388 17.511 9.246 17.241 9.25 L 4.571 9.25 L 6.26 7.561 C 6.456 7.372 6.535 7.093 6.467 6.83 C 6.398 6.567 6.193 6.362 5.93 6.294 C 5.667 6.225 5.388 6.304 5.2 6.5 L 2.296 9.402 C 2.269 9.422 2.243 9.445 2.218 9.47 C 2.075 9.613 1.995 9.809 1.999 10.012 C 2.002 10.211 2.084 10.4 2.227 10.539 C 2.249 10.56 2.272 10.58 2.296 10.598 Z " fill="rgb(0,0,0)"/></g></svg>