<?xml version="1.0" standalone="no"?><!-- Generator: Gravit.io --><svg xmlns="http://www.w3.org/2000/svg" xmlns:xlink="http://www.w3.org/1999/xlink" style="isolation:isolate" viewBox="0 0 20 20" width="20" height="20"><defs><clipPath id="_clipPath_dOj42qSujphshcDtUUk8x2oW3s4fWHvN"><rect width="20" height="20"/></clipPath></defs><g clip-path="url(#_clipPath_dOj42qSujphshcDtUUk8x2oW3s4fWHvN)"><path d=" M 10.598 17.704 L 13.5 14.8 C 13.696 14.612 13.775 14.333 13.706 14.07 C 13.638 13.807 13.433 13.602 13.17 13.533 C 12.907 13.465 12.628 13.544 12.439 13.74 L 10.75 15.429 L 10.75 2.759 C 10.754 2.489 10.612 2.237 10.378 2.101 C 10.144 1.964 9.856 1.964 9.622 2.101 C 9.388 2.237 9.246 2.489 9.25 2.759 L 9.25 15.429 L 7.561 13.74 C 7.372 13.544 7.093 13.465 6.83 13.533 C 6.567 13.602 6.362 13.807 6.294 14.07 C 6.225 14.333 6.304 14.612 6.5 14.8 L 9.402 17.704 C 9.422 17.731 9.445 17.757 9.47 17.782 C 9.613 17.925 9.809 18.005 10.012 18.001 C 10.211 17.998 10.4 17.916 10.539 17.773 C 10.56 17.751 10.58 17.728 10.598 17.704 Z " fill="rgb(0,0,0)"/></g></svg>