<?xml version="1.0" standalone="no"?><!-- Generator: Gravit.io --><svg xmlns="http://www.w3.org/2000/svg" xmlns:xlink="http://www.w3.org/1999/xlink" style="isolation:isolate" viewBox="0 0 20 20" width="20" height="20"><defs><clipPath id="_clipPath_Aep7huzIS7pwTBEChBireUFAfNCjaIUI"><rect width="20" height="20"/></clipPath></defs><g clip-path="url(#_clipPath_Aep7huzIS7pwTBEChBireUFAfNCjaIUI)"><path d=" M 13.25 7.7 L 13.25 5.75 C 13.25 5.68 13.22 5.62 13.18 5.57 C 13.13 5.53 13.07 5.5 13 5.5 L 7 5.5 L 7 5.5 L 7 5.5 C 6.93 5.5 6.87 5.53 6.82 5.57 C 6.78 5.62 6.75 5.68 6.75 5.75 L 6.75 7.7 L 6.75 7.7 L 13.25 7.7 Z  M 11.5 2 C 11.7 2 11.89 2.08 12.03 2.22 C 12.17 2.36 12.25 2.55 12.25 2.75 C 12.25 2.95 12.17 3.14 12.03 3.28 C 11.89 3.42 11.7 3.5 11.5 3.5 L 8.5 3.5 C 8.3 3.5 8.11 3.42 7.97 3.28 C 7.83 3.14 7.75 2.95 7.75 2.75 C 7.75 2.55 7.83 2.36 7.97 2.22 C 8.11 2.08 8.3 2 8.5 2 L 11.5 2 L 11.5 2 Z  M 7 4 L 13 4 C 13.46 4 13.91 4.18 14.24 4.51 C 14.57 4.84 14.75 5.29 14.75 5.75 L 14.75 16.25 C 14.75 16.71 14.57 17.16 14.24 17.49 C 13.91 17.82 13.46 18 13 18 L 7 18 C 6.54 18 6.09 17.82 5.76 17.49 C 5.43 17.16 5.25 16.71 5.25 16.25 L 5.25 5.75 C 5.25 5.29 5.43 4.84 5.76 4.51 C 6.09 4.18 6.54 4 7 4 L 7 4 L 7 4 Z  M 9.439 7.05 C 9.186 7.05 8.962 7.212 8.882 7.452 L 7.762 10.811 C 7.635 11.192 7.918 11.586 8.32 11.586 L 9.295 11.586 L 8.58 14.171 C 8.356 14.838 9.283 15.264 9.645 14.661 L 12.184 10.181 C 12.419 9.789 12.137 9.29 11.68 9.29 L 10.84 9.29 L 11.534 7.9 C 11.729 7.509 11.445 7.05 11.008 7.05 L 9.439 7.05 Z " fill-rule="evenodd" fill="rgb(0,0,0)"/></g></svg>