<?xml version="1.0" standalone="no"?><!-- Generator: Gravit.io --><svg xmlns="http://www.w3.org/2000/svg" xmlns:xlink="http://www.w3.org/1999/xlink" style="isolation:isolate" viewBox="0 0 20 20" width="20" height="20"><defs><clipPath id="_clipPath_uwWznPZQUQ7ckjb5OH9VsBMurc4D9as0"><rect width="20" height="20"/></clipPath></defs><g clip-path="url(#_clipPath_uwWznPZQUQ7ckjb5OH9VsBMurc4D9as0)"><path d=" M 9.983 2 C 9.573 2.006 9.243 2.34 9.243 2.75 L 9.243 8.197 L 6.905 5.86 C 6.717 5.664 6.437 5.585 6.175 5.653 C 5.912 5.722 5.707 5.927 5.638 6.19 C 5.57 6.453 5.648 6.732 5.844 6.92 L 8.944 10.02 L 5.844 13.119 C 5.648 13.307 5.57 13.587 5.638 13.85 C 5.707 14.112 5.912 14.318 6.175 14.386 C 6.437 14.455 6.717 14.376 6.905 14.18 L 9.243 11.842 L 9.243 17.25 C 9.243 17.553 9.425 17.826 9.704 17.942 C 9.983 18.059 10.305 17.996 10.52 17.783 L 14.163 14.184 C 14.305 14.043 14.385 13.852 14.386 13.652 C 14.387 13.452 14.308 13.261 14.167 13.119 L 11.067 10.02 L 14.167 6.92 C 14.459 6.627 14.459 6.152 14.167 5.86 L 10.524 2.219 C 10.381 2.076 10.186 1.997 9.983 2 Z  M 10.743 4.559 L 12.575 6.391 L 10.743 8.223 L 10.743 4.559 Z  M 10.743 11.817 L 12.573 13.647 L 10.743 15.455 L 10.743 11.817 Z " fill="rgb(0,0,0)"/></g></svg>