<?xml version="1.0" standalone="no"?><!-- Generator: Gravit.io --><svg xmlns="http://www.w3.org/2000/svg" xmlns:xlink="http://www.w3.org/1999/xlink" style="isolation:isolate" viewBox="0 0 20 20" width="20" height="20"><defs><clipPath id="_clipPath_vZSPyhitn0oEdGWHYQXWW1Iaf5NWBzXV"><rect width="20" height="20"/></clipPath></defs><g clip-path="url(#_clipPath_vZSPyhitn0oEdGWHYQXWW1Iaf5NWBzXV)"><path d=" M 8.906 10 L 5.888 6.981 C 5.692 6.792 5.613 6.513 5.682 6.25 C 5.75 5.987 5.956 5.782 6.219 5.714 C 6.481 5.645 6.761 5.724 6.949 5.92 L 9.218 8.191 L 9.218 2.75 C 9.218 2.337 9.552 2.002 9.964 2 L 9.964 2 C 10.167 1.999 10.362 2.08 10.504 2.225 L 14.129 5.926 C 14.418 6.222 14.413 6.697 14.117 6.986 L 11.039 10 L 11.039 10 L 14.117 13.014 C 14.413 13.303 14.418 13.778 14.129 14.074 L 10.504 17.775 C 10.29 17.993 9.967 18.059 9.685 17.944 C 9.403 17.829 9.218 17.555 9.218 17.25 L 9.218 11.809 L 6.949 14.08 C 6.761 14.276 6.481 14.355 6.219 14.286 C 5.956 14.218 5.75 14.013 5.682 13.75 C 5.613 13.487 5.692 13.208 5.888 13.02 L 8.906 10 Z  M 10.718 4.59 L 12.531 6.441 L 10.718 8.215 L 10.718 4.59 L 10.718 4.59 Z  M 10.718 11.785 L 12.531 13.559 L 10.718 15.41 L 10.718 11.785 L 10.718 11.785 Z " fill-rule="evenodd" fill="rgb(0,0,0)"/></g></svg>