<?xml version="1.0" standalone="no"?><!-- Generator: Gravit.io --><svg xmlns="http://www.w3.org/2000/svg" xmlns:xlink="http://www.w3.org/1999/xlink" style="isolation:isolate" viewBox="0 0 20 20" width="20" height="20"><defs><clipPath id="_clipPath_V2ZJpqc2B7AwlNILNitROiarUk4g7xpb"><rect width="20" height="20"/></clipPath></defs><g clip-path="url(#_clipPath_V2ZJpqc2B7AwlNILNitROiarUk4g7xpb)"><path d=" M 12.93 14.765 L 10.976 12.81 C 10.756 12.597 10.687 12.273 10.803 11.989 C 10.918 11.706 11.193 11.52 11.499 11.521 L 11.499 11.521 C 11.702 11.522 11.896 11.604 12.036 11.75 L 13.991 13.704 L 15.947 11.75 C 16.082 11.61 16.267 11.529 16.462 11.523 C 16.771 11.514 17.054 11.696 17.175 11.98 C 17.295 12.265 17.229 12.595 17.007 12.81 L 15.053 14.765 L 17.007 16.718 C 17.197 16.908 17.271 17.184 17.202 17.443 C 17.133 17.702 16.931 17.905 16.672 17.975 C 16.413 18.044 16.136 17.97 15.947 17.781 L 13.991 15.826 L 12.036 17.781 C 11.847 17.97 11.57 18.044 11.311 17.975 C 11.052 17.905 10.85 17.702 10.781 17.443 C 10.712 17.184 10.786 16.908 10.976 16.718 L 12.93 14.765 Z  M 7.825 4.588 L 9.642 6.443 L 7.825 8.24 L 7.825 4.588 L 7.825 4.588 L 7.825 4.588 L 7.825 4.588 Z  M 6.325 8.165 L 6.325 2.75 C 6.326 2.337 6.659 2.002 7.072 2 L 7.072 2 C 7.274 1.999 7.469 2.08 7.611 2.224 L 11.236 5.925 C 11.525 6.22 11.521 6.694 11.228 6.984 L 8.181 10 L 9.511 11.316 C 9.708 11.503 9.788 11.782 9.721 12.045 C 9.654 12.308 9.45 12.514 9.188 12.584 C 8.925 12.654 8.646 12.577 8.456 12.383 L 7.825 11.758 L 7.825 15.414 L 8.449 14.777 C 8.635 14.58 8.913 14.499 9.176 14.565 C 9.439 14.632 9.646 14.835 9.717 15.096 C 9.788 15.358 9.712 15.638 9.519 15.828 L 7.611 17.775 C 7.397 17.992 7.074 18.059 6.792 17.944 C 6.51 17.828 6.326 17.554 6.325 17.25 L 6.325 11.834 L 4.054 14.082 C 3.865 14.276 3.585 14.354 3.323 14.284 C 3.061 14.214 2.857 14.007 2.789 13.744 C 2.722 13.481 2.803 13.202 2.999 13.015 L 6.047 9.999 L 2.999 6.984 C 2.779 6.773 2.709 6.449 2.822 6.165 C 2.936 5.881 3.21 5.695 3.515 5.693 C 3.718 5.692 3.912 5.773 4.054 5.918 L 6.325 8.165 L 6.325 8.165 L 6.325 8.165 Z " fill-rule="evenodd" fill="rgb(0,0,0)"/></g></svg>