<?xml version="1.0" standalone="no"?><!-- Generator: Gravit.io --><svg xmlns="http://www.w3.org/2000/svg" xmlns:xlink="http://www.w3.org/1999/xlink" style="isolation:isolate" viewBox="0 0 20 20" width="20" height="20"><defs><clipPath id="_clipPath_VTBtVRGTWULR3Icoy0I2gsgXp8YbrshD"><rect width="20" height="20"/></clipPath></defs><g clip-path="url(#_clipPath_VTBtVRGTWULR3Icoy0I2gsgXp8YbrshD)"><path d=" M 12.897 14.779 L 10.943 12.825 C 10.724 12.612 10.655 12.288 10.77 12.005 C 10.884 11.721 11.159 11.536 11.465 11.536 L 11.465 11.536 C 11.668 11.536 11.863 11.618 12.004 11.764 L 13.958 13.718 L 15.912 11.764 C 16.048 11.625 16.233 11.544 16.428 11.538 C 16.737 11.529 17.019 11.711 17.14 11.995 C 17.261 12.28 17.194 12.609 16.973 12.825 L 15.019 14.779 L 16.973 16.733 C 17.162 16.923 17.237 17.199 17.168 17.458 C 17.098 17.717 16.896 17.92 16.637 17.989 C 16.378 18.059 16.102 17.985 15.912 17.796 L 13.958 15.841 L 12.004 17.796 C 11.814 17.985 11.538 18.059 11.279 17.989 C 11.02 17.92 10.818 17.717 10.748 17.458 C 10.679 17.199 10.754 16.923 10.943 16.733 L 12.897 14.779 Z  M 7.93 4.544 L 9.76 6.376 L 7.93 8.206 L 7.93 4.544 L 7.93 4.544 L 7.93 4.544 L 7.93 4.544 Z  M 6.43 8.182 L 6.43 2.735 C 6.43 2.325 6.758 1.992 7.168 1.985 L 7.168 1.985 C 7.371 1.981 7.567 2.06 7.711 2.204 L 11.352 5.844 C 11.644 6.137 11.644 6.612 11.352 6.905 L 8.252 10.005 L 9.488 11.241 C 9.684 11.429 9.763 11.708 9.695 11.971 C 9.626 12.234 9.421 12.439 9.158 12.508 C 8.895 12.576 8.616 12.497 8.428 12.302 L 7.93 11.803 L 7.93 15.44 L 8.432 14.944 C 8.619 14.741 8.903 14.657 9.171 14.726 C 9.438 14.795 9.646 15.006 9.712 15.274 C 9.777 15.543 9.69 15.826 9.484 16.01 L 7.707 17.768 C 7.492 17.981 7.17 18.044 6.891 17.927 C 6.612 17.81 6.43 17.538 6.43 17.235 L 6.43 11.827 L 4.092 14.165 C 3.904 14.361 3.624 14.44 3.361 14.371 C 3.099 14.303 2.893 14.097 2.825 13.835 C 2.756 13.572 2.835 13.292 3.031 13.104 L 6.131 10.005 L 3.031 6.905 C 2.813 6.692 2.745 6.368 2.86 6.085 C 2.975 5.803 3.25 5.618 3.555 5.618 C 3.757 5.618 3.951 5.7 4.092 5.844 L 6.43 8.182 L 6.43 8.182 L 6.43 8.182 Z " fill-rule="evenodd" fill="rgb(0,0,0)"/></g></svg>