<?xml version="1.0" standalone="no"?><!-- Generator: Gravit.io --><svg xmlns="http://www.w3.org/2000/svg" xmlns:xlink="http://www.w3.org/1999/xlink" style="isolation:isolate" viewBox="0 0 20 20" width="20" height="20"><defs><clipPath id="_clipPath_fT2J6cO3Fwc2QIUfOnseWJbD8AQZzdUQ"><rect width="20" height="20"/></clipPath></defs><g clip-path="url(#_clipPath_fT2J6cO3Fwc2QIUfOnseWJbD8AQZzdUQ)"><path d=" M 14.551 3.505 L 17.25 3.505 C 17.664 3.505 18 3.841 18 4.255 L 18 8.129 C 18.014 8.212 18.014 8.298 18 8.381 L 18 17.255 C 18 17.669 17.664 18.005 17.25 18.005 L 2.75 18.005 C 2.336 18.005 2 17.669 2 17.255 L 2 8.381 C 1.986 8.298 1.986 8.212 2 8.129 L 2 8.129 L 2 4.255 C 2 3.841 2.336 3.505 2.75 3.505 L 2.75 3.505 L 5.551 3.505 L 5.551 3.505 L 5.551 2.755 C 5.545 2.341 5.876 2.002 6.289 1.995 C 6.492 1.992 6.687 2.071 6.83 2.214 C 6.974 2.357 7.053 2.552 7.051 2.755 L 7.051 3.505 L 13.051 3.505 L 13.051 2.755 C 13.045 2.341 13.376 2.002 13.789 1.995 C 13.992 1.992 14.187 2.071 14.33 2.214 C 14.474 2.357 14.553 2.552 14.551 2.755 L 14.551 3.505 Z  M 13.051 5.005 L 7.051 5.005 L 7.051 5.005 L 7.051 5.755 C 7.055 6.025 6.912 6.277 6.679 6.413 C 6.445 6.55 6.156 6.55 5.923 6.413 C 5.689 6.277 5.547 6.025 5.551 5.755 L 5.551 5.005 L 3.5 5.005 L 3.5 5.005 L 3.5 7.505 L 16.5 7.505 L 16.5 7.505 L 16.5 5.005 L 14.551 5.005 L 14.551 5.755 C 14.555 6.025 14.412 6.277 14.179 6.413 C 13.945 6.55 13.656 6.55 13.423 6.413 C 13.189 6.277 13.047 6.025 13.051 5.755 L 13.051 5.005 Z  M 16.5 9.005 L 16.5 16.505 L 3.5 16.505 L 3.5 9.005 L 16.5 9.005 L 16.5 9.005 L 16.5 9.005 Z " fill-rule="evenodd" fill="rgb(0,0,0)"/></g></svg>