<?xml version="1.0" standalone="no"?><!-- Generator: Gravit.io --><svg xmlns="http://www.w3.org/2000/svg" xmlns:xlink="http://www.w3.org/1999/xlink" style="isolation:isolate" viewBox="0 0 20 20" width="20" height="20"><defs><clipPath id="_clipPath_uBvJVd0tBHPb95kY6YyoTLeTvxS1d41a"><rect width="20" height="20"/></clipPath></defs><g clip-path="url(#_clipPath_uBvJVd0tBHPb95kY6YyoTLeTvxS1d41a)"><path d=" M 10.021 15.203 C 10.014 15.203 10.007 15.203 10 15.203 C 9.993 15.203 9.986 15.203 9.979 15.203 L 3.732 15.203 C 3.596 15.203 3.5 15.109 3.5 14.973 L 3.5 6.811 C 3.5 6.674 3.596 6.578 3.732 6.578 L 6.199 6.578 C 6.386 6.578 6.567 6.509 6.705 6.383 L 8.447 4.797 L 9.979 4.797 C 9.986 4.797 9.993 4.797 10 4.797 C 10.007 4.797 10.014 4.797 10.021 4.797 L 11.553 4.797 L 13.295 6.383 C 13.433 6.509 13.614 6.578 13.801 6.578 L 16.268 6.578 C 16.404 6.578 16.5 6.674 16.5 6.811 L 16.5 14.973 C 16.5 15.109 16.404 15.203 16.268 15.203 L 10.021 15.203 L 10.021 15.203 Z  M 9.979 16.703 L 3.732 16.703 C 2.785 16.703 2 15.921 2 14.973 L 2 6.811 C 2 5.863 2.785 5.078 3.732 5.078 L 5.91 5.078 L 7.65 3.492 C 7.789 3.366 7.969 3.297 8.156 3.297 L 9.979 3.297 C 9.986 3.297 9.993 3.297 10 3.297 C 10.007 3.297 10.014 3.297 10.021 3.297 L 11.844 3.297 C 12.031 3.297 12.211 3.366 12.35 3.492 L 14.09 5.078 L 16.268 5.078 C 17.215 5.078 18 5.863 18 6.811 L 18 14.973 C 18 15.921 17.215 16.703 16.268 16.703 L 10.021 16.703 C 10.014 16.703 10.007 16.703 10 16.703 C 9.993 16.703 9.986 16.703 9.979 16.703 L 9.979 16.703 Z  M 10 9.135 C 10.979 9.135 11.756 9.911 11.756 10.891 C 11.756 11.87 10.979 12.648 10 12.648 C 9.021 12.648 8.244 11.87 8.244 10.891 C 8.244 9.911 9.021 9.135 10 9.135 L 10 9.135 Z  M 10 7.635 C 8.21 7.635 6.744 9.101 6.744 10.891 C 6.744 12.68 8.21 14.148 10 14.148 C 11.79 14.148 13.256 12.68 13.256 10.891 C 13.256 9.101 11.79 7.635 10 7.635 L 10 7.635 Z " fill-rule="evenodd" fill="rgb(0,0,0)"/></g></svg>