<?xml version="1.0" standalone="no"?><!-- Generator: Gravit.io --><svg xmlns="http://www.w3.org/2000/svg" xmlns:xlink="http://www.w3.org/1999/xlink" style="isolation:isolate" viewBox="0 0 20 20" width="20" height="20"><defs><clipPath id="_clipPath_NABDPbr9t5tieFksSN59RWobMwSzCcfe"><rect width="20" height="20"/></clipPath></defs><g clip-path="url(#_clipPath_NABDPbr9t5tieFksSN59RWobMwSzCcfe)"><path d=" M 13.701 14.764 L 11.747 12.81 C 11.527 12.597 11.459 12.273 11.573 11.99 C 11.688 11.706 11.963 11.521 12.268 11.521 C 12.472 11.521 12.666 11.603 12.807 11.749 L 14.762 13.703 L 16.716 11.749 C 16.852 11.61 17.036 11.529 17.231 11.523 C 17.541 11.513 17.824 11.694 17.945 11.979 C 18.066 12.264 18 12.594 17.778 12.81 L 15.824 14.764 L 17.778 16.718 C 17.968 16.908 18.042 17.185 17.973 17.444 C 17.903 17.703 17.701 17.906 17.441 17.975 C 17.182 18.045 16.905 17.971 16.716 17.781 L 14.762 15.826 L 12.807 17.781 C 12.618 17.97 12.341 18.044 12.082 17.974 C 11.823 17.905 11.621 17.702 11.552 17.443 C 11.483 17.184 11.557 16.908 11.747 16.718 L 13.701 14.764 Z  M 17.225 1.999 C 17.034 2.005 16.851 2.083 16.716 2.218 L 2.216 16.718 C 2 16.933 1.936 17.256 2.052 17.537 C 2.169 17.817 2.443 18 2.747 17.999 L 9.762 17.999 C 10.033 18.003 10.285 17.861 10.421 17.628 C 10.557 17.394 10.557 17.105 10.421 16.871 C 10.285 16.638 10.033 16.496 9.762 16.499 L 4.559 16.499 L 16.497 4.562 L 16.497 9.765 C 16.493 10.036 16.635 10.287 16.869 10.424 C 17.102 10.56 17.391 10.56 17.625 10.424 C 17.859 10.287 18.001 10.036 17.997 9.765 L 17.997 2.749 C 17.997 2.547 17.915 2.353 17.77 2.211 C 17.624 2.07 17.428 1.994 17.225 1.999 L 17.225 1.999 Z " fill-rule="evenodd" fill="rgb(0,0,0)"/></g></svg>