<?xml version="1.0" standalone="no"?><!-- Generator: Gravit.io --><svg xmlns="http://www.w3.org/2000/svg" xmlns:xlink="http://www.w3.org/1999/xlink" style="isolation:isolate" viewBox="0 0 20 20" width="20" height="20"><defs><clipPath id="_clipPath_eKvaxBtFxk4ICwgX8ue1z8RRvaPBu1Ln"><rect width="20" height="20"/></clipPath></defs><g clip-path="url(#_clipPath_eKvaxBtFxk4ICwgX8ue1z8RRvaPBu1Ln)"><path d=" M 6.634 10.031 C 6.637 10.226 6.716 10.411 6.853 10.549 L 12.085 15.781 C 12.275 15.971 12.551 16.045 12.81 15.975 C 13.069 15.905 13.272 15.703 13.341 15.444 C 13.41 15.185 13.336 14.908 13.146 14.719 L 8.443 10.016 L 13.148 5.279 C 13.337 5.089 13.41 4.813 13.34 4.554 C 13.27 4.295 13.067 4.093 12.808 4.024 C 12.549 3.956 12.272 4.031 12.083 4.221 L 6.851 9.49 C 6.709 9.634 6.63 9.829 6.634 10.031 Z " fill="rgb(0,0,0)"/></g></svg>