<?xml version="1.0" standalone="no"?><!-- Generator: Gravit.io --><svg xmlns="http://www.w3.org/2000/svg" xmlns:xlink="http://www.w3.org/1999/xlink" style="isolation:isolate" viewBox="0 0 20 20" width="20" height="20"><defs><clipPath id="_clipPath_qXYAQoLAlU00oA3iZ01HgCQ174jGFN8E"><rect width="20" height="20"/></clipPath></defs><g clip-path="url(#_clipPath_qXYAQoLAlU00oA3iZ01HgCQ174jGFN8E)"><path d=" M 10.031 13.366 C 10.226 13.363 10.411 13.284 10.549 13.147 L 15.781 7.915 C 15.971 7.725 16.045 7.449 15.975 7.19 C 15.905 6.931 15.703 6.728 15.444 6.659 C 15.185 6.59 14.908 6.664 14.719 6.854 L 10.016 11.557 L 5.279 6.852 C 5.089 6.663 4.813 6.59 4.554 6.66 C 4.295 6.73 4.093 6.933 4.024 7.192 C 3.956 7.451 4.031 7.728 4.221 7.917 L 9.49 13.149 C 9.634 13.291 9.829 13.37 10.031 13.366 Z " fill="rgb(0,0,0)"/></g></svg>