<?xml version="1.0" standalone="no"?><!-- Generator: Gravit.io --><svg xmlns="http://www.w3.org/2000/svg" xmlns:xlink="http://www.w3.org/1999/xlink" style="isolation:isolate" viewBox="0 0 20 20" width="20" height="20"><defs><clipPath id="_clipPath_dv9dTDeJ1Wjix5xcPwhcPcE0YIjgKd2F"><rect width="20" height="20"/></clipPath></defs><g clip-path="url(#_clipPath_dv9dTDeJ1Wjix5xcPwhcPcE0YIjgKd2F)"><path d=" M 13.366 9.969 C 13.363 9.774 13.284 9.589 13.147 9.451 L 7.915 4.219 C 7.725 4.029 7.449 3.955 7.19 4.025 C 6.931 4.095 6.728 4.297 6.659 4.556 C 6.59 4.815 6.664 5.092 6.854 5.281 L 11.557 9.984 L 6.852 14.721 C 6.663 14.911 6.59 15.187 6.66 15.446 C 6.73 15.705 6.933 15.907 7.192 15.976 C 7.451 16.044 7.728 15.969 7.917 15.779 L 13.149 10.51 C 13.291 10.366 13.37 10.171 13.366 9.969 Z " fill="rgb(0,0,0)"/></g></svg>