<?xml version="1.0" standalone="no"?><!-- Generator: Gravit.io --><svg xmlns="http://www.w3.org/2000/svg" xmlns:xlink="http://www.w3.org/1999/xlink" style="isolation:isolate" viewBox="0 0 20 20" width="20" height="20"><defs><clipPath id="_clipPath_oU0wHVO13aCZQ7lDiP3CsZyNUVikp57p"><rect width="20" height="20"/></clipPath></defs><g clip-path="url(#_clipPath_oU0wHVO13aCZQ7lDiP3CsZyNUVikp57p)"><path d=" M 9.969 6.634 C 9.774 6.637 9.589 6.716 9.451 6.853 L 4.219 12.085 C 4.029 12.275 3.955 12.551 4.025 12.81 C 4.095 13.069 4.297 13.272 4.556 13.341 C 4.815 13.41 5.092 13.336 5.281 13.146 L 9.984 8.443 L 14.721 13.148 C 14.911 13.337 15.187 13.41 15.446 13.34 C 15.705 13.27 15.907 13.067 15.976 12.808 C 16.044 12.549 15.969 12.272 15.779 12.083 L 10.51 6.851 C 10.366 6.709 10.171 6.63 9.969 6.634 Z " fill="rgb(0,0,0)"/></g></svg>