<?xml version="1.0" standalone="no"?><!-- Generator: Gravit.io --><svg xmlns="http://www.w3.org/2000/svg" xmlns:xlink="http://www.w3.org/1999/xlink" style="isolation:isolate" viewBox="0 0 20 20" width="20" height="20"><defs><clipPath id="_clipPath_CgoTWOXb9TUyKf8UEXagLXf2JUqB2Xfh"><rect width="20" height="20"/></clipPath></defs><g clip-path="url(#_clipPath_CgoTWOXb9TUyKf8UEXagLXf2JUqB2Xfh)"><path d=" M 5.204 2.001 C 5.018 2.01 4.842 2.088 4.71 2.22 C 3.038 3.893 2.001 6.208 2.001 8.755 C 2.001 13.85 6.15 17.999 11.245 17.999 C 13.792 17.999 16.108 16.962 17.78 15.29 C 17.992 15.078 18.057 14.759 17.945 14.481 C 17.832 14.202 17.565 14.017 17.265 14.011 C 13.964 13.948 11.338 12.876 9.231 10.769 C 7.125 8.662 6.053 6.036 5.989 2.736 C 5.985 2.533 5.9 2.341 5.752 2.203 C 5.604 2.065 5.406 1.992 5.204 2.001 Z  M 4.855 4.636 C 5.266 7.406 6.241 9.9 8.171 11.83 C 10.101 13.759 12.594 14.735 15.364 15.146 C 14.155 15.929 12.796 16.499 11.245 16.499 C 6.962 16.499 3.501 13.038 3.501 8.755 C 3.501 7.205 4.071 5.846 4.855 4.636 Z " fill="rgb(0,0,0)"/></g></svg>