<?xml version="1.0" standalone="no"?><!-- Generator: Gravit.io --><svg xmlns="http://www.w3.org/2000/svg" xmlns:xlink="http://www.w3.org/1999/xlink" style="isolation:isolate" viewBox="0 0 20 20" width="20" height="20"><defs><clipPath id="_clipPath_GAVLDVu6pSqra2DGcSr4LGkMCQp6I4GV"><rect width="20" height="20"/></clipPath></defs><g clip-path="url(#_clipPath_GAVLDVu6pSqra2DGcSr4LGkMCQp6I4GV)"><path d=" M 5.75 10 C 5.75 8.87 6.2 7.79 6.99 6.99 C 7.79 6.2 8.87 5.75 10 5.75 C 11.13 5.75 12.21 6.2 13.01 6.99 C 13.8 7.79 14.25 8.87 14.25 10 C 14.25 11.13 13.8 12.21 13.01 13.01 C 12.21 13.8 11.13 14.25 10 14.25 C 8.87 14.25 7.79 13.8 6.99 13.01 C 6.2 12.21 5.75 11.13 5.75 10 Z  M 7.25 10 C 7.25 9.27 7.54 8.57 8.06 8.06 C 8.57 7.54 9.27 7.25 10 7.25 C 10.73 7.25 11.43 7.54 11.94 8.06 C 12.46 8.57 12.75 9.27 12.75 10 C 12.75 10.73 12.46 11.43 11.94 11.94 C 11.43 12.46 10.73 12.75 10 12.75 C 9.27 12.75 8.57 12.46 8.06 11.94 C 7.54 11.43 7.25 10.73 7.25 10 Z  M 10.75 4.25 C 10.75 4.45 10.67 4.64 10.53 4.78 C 10.39 4.92 10.2 5 10 5 C 9.8 5 9.61 4.92 9.47 4.78 C 9.33 4.64 9.25 4.45 9.25 4.25 L 9.25 2.75 C 9.25 2.55 9.33 2.36 9.47 2.22 C 9.61 2.08 9.8 2 10 2 C 10.2 2 10.39 2.08 10.53 2.22 C 10.67 2.36 10.75 2.55 10.75 2.75 L 10.75 4.25 Z  M 5.4 6.48 C 5.57 6.57 5.69 6.74 5.74 6.93 C 5.8 7.12 5.77 7.33 5.67 7.5 C 5.57 7.67 5.41 7.8 5.21 7.85 C 5.02 7.9 4.82 7.87 4.65 7.77 L 3.35 7.02 C 3.17 6.93 3.05 6.76 3 6.57 C 2.95 6.38 2.97 6.17 3.07 6 C 3.17 5.83 3.34 5.7 3.53 5.65 C 3.72 5.6 3.92 5.63 4.1 5.73 L 5.4 6.48 Z  M 4.1 14.27 C 3.92 14.37 3.72 14.4 3.53 14.35 C 3.34 14.3 3.17 14.17 3.07 14 C 2.97 13.83 2.95 13.62 3 13.43 C 3.05 13.24 3.17 13.07 3.35 12.98 L 4.65 12.23 C 4.82 12.13 5.02 12.1 5.21 12.15 C 5.41 12.2 5.57 12.33 5.67 12.5 C 5.77 12.67 5.8 12.88 5.74 13.07 C 5.69 13.26 5.57 13.43 5.4 13.52 L 4.1 14.27 Z  M 10.75 17.25 C 10.75 17.45 10.67 17.64 10.53 17.78 C 10.39 17.92 10.2 18 10 18 C 9.8 18 9.61 17.92 9.47 17.78 C 9.33 17.64 9.25 17.45 9.25 17.25 L 9.25 15.75 C 9.25 15.55 9.33 15.36 9.47 15.22 C 9.61 15.08 9.8 15 10 15 C 10.2 15 10.39 15.08 10.53 15.22 C 10.67 15.36 10.75 15.55 10.75 15.75 L 10.75 17.25 Z  M 16.65 12.98 C 16.83 13.07 16.95 13.24 17 13.43 C 17.05 13.62 17.03 13.83 16.93 14 C 16.83 14.17 16.66 14.3 16.47 14.35 C 16.28 14.4 16.08 14.37 15.9 14.27 L 14.6 13.52 C 14.43 13.43 14.31 13.26 14.26 13.07 C 14.2 12.88 14.23 12.67 14.33 12.5 C 14.43 12.33 14.59 12.2 14.79 12.15 C 14.98 12.1 15.18 12.13 15.35 12.23 L 16.65 12.98 Z  M 15.9 5.73 C 16.08 5.63 16.28 5.6 16.47 5.65 C 16.66 5.7 16.83 5.83 16.93 6 C 17.03 6.17 17.05 6.38 17 6.57 C 16.95 6.76 16.83 6.93 16.65 7.02 L 15.35 7.77 C 15.18 7.87 14.98 7.9 14.79 7.85 C 14.59 7.8 14.43 7.67 14.33 7.5 C 14.23 7.33 14.2 7.12 14.26 6.93 C 14.31 6.74 14.43 6.57 14.6 6.48 L 15.9 5.73 Z " fill-rule="evenodd" fill="rgb(0,0,0)"/></g></svg>