<?xml version="1.0" standalone="no"?><!-- Generator: Gravit.io --><svg xmlns="http://www.w3.org/2000/svg" xmlns:xlink="http://www.w3.org/1999/xlink" style="isolation:isolate" viewBox="0 0 20 20" width="20" height="20"><defs><clipPath id="_clipPath_duFOYDZoD7WVmAc2m9QW5EuUBBBCWoxt"><rect width="20" height="20"/></clipPath></defs><g clip-path="url(#_clipPath_duFOYDZoD7WVmAc2m9QW5EuUBBBCWoxt)"><path d=" M 10 11.06 L 14.6 15.66 C 14.74 15.8 14.93 15.88 15.13 15.88 C 15.33 15.88 15.52 15.8 15.66 15.66 C 15.8 15.52 15.88 15.33 15.88 15.13 C 15.88 14.93 15.8 14.74 15.66 14.6 L 11.06 10 L 15.66 5.4 C 15.8 5.26 15.88 5.07 15.88 4.87 C 15.88 4.67 15.8 4.48 15.66 4.34 C 15.52 4.2 15.33 4.12 15.13 4.12 C 14.93 4.12 14.74 4.2 14.6 4.34 L 10 8.94 L 5.4 4.34 C 5.26 4.2 5.07 4.12 4.87 4.12 C 4.67 4.12 4.48 4.2 4.34 4.34 C 4.2 4.48 4.12 4.67 4.12 4.87 C 4.12 5.07 4.2 5.26 4.34 5.4 L 8.94 10 L 4.34 14.6 C 4.2 14.74 4.12 14.93 4.12 15.13 C 4.12 15.33 4.2 15.52 4.34 15.66 C 4.48 15.8 4.67 15.88 4.87 15.88 C 5.07 15.88 5.26 15.8 5.4 15.66 L 10 11.06 Z " fill="rgb(0,0,0)"/></g></svg>