<?xml version="1.0" standalone="no"?><!-- Generator: Gravit.io --><svg xmlns="http://www.w3.org/2000/svg" xmlns:xlink="http://www.w3.org/1999/xlink" style="isolation:isolate" viewBox="0 0 20 20" width="20" height="20"><defs><clipPath id="_clipPath_leXkAd5GDToMDvXmqGMyqUsDtCabIixq"><rect width="20" height="20"/></clipPath></defs><g clip-path="url(#_clipPath_leXkAd5GDToMDvXmqGMyqUsDtCabIixq)"><path d=" M 10 11.06 L 14.72 15.78 C 14.86 15.92 15.05 16 15.25 16 C 15.45 16 15.64 15.92 15.78 15.78 C 15.92 15.64 16 15.45 16 15.25 C 16 15.05 15.92 14.86 15.78 14.72 L 11.06 10 L 15.78 5.28 C 15.92 5.14 16 4.95 16 4.75 C 16 4.55 15.92 4.36 15.78 4.22 C 15.64 4.08 15.45 4 15.25 4 C 15.05 4 14.86 4.08 14.72 4.22 L 10 8.94 L 5.28 4.22 C 5.14 4.08 4.95 4 4.75 4 C 4.55 4 4.36 4.08 4.22 4.22 C 4.08 4.36 4 4.55 4 4.75 C 4 4.95 4.08 5.14 4.22 5.28 L 8.94 10 L 4.22 14.72 C 4.08 14.86 4 15.05 4 15.25 C 4 15.45 4.08 15.64 4.22 15.78 C 4.36 15.92 4.55 16 4.75 16 C 4.95 16 5.14 15.92 5.28 15.78 L 10 11.06 Z " fill="rgb(0,0,0)"/></g></svg>