<?xml version="1.0" standalone="no"?><!-- Generator: Gravit.io --><svg xmlns="http://www.w3.org/2000/svg" xmlns:xlink="http://www.w3.org/1999/xlink" style="isolation:isolate" viewBox="0 0 20 20" width="20" height="20"><defs><clipPath id="_clipPath_l4ulN5LQS95bwqRCkO0ksHuItWIByQ8n"><rect width="20" height="20"/></clipPath></defs><g clip-path="url(#_clipPath_l4ulN5LQS95bwqRCkO0ksHuItWIByQ8n)"><path d=" M 10.695 14.767 C 10.695 14.967 10.615 15.157 10.475 15.297 C 10.325 15.437 10.135 15.517 9.935 15.507 C 9.735 15.507 9.545 15.427 9.405 15.287 C 9.275 15.147 9.195 14.957 9.195 14.757 L 9.305 2.757 C 9.305 2.557 9.385 2.367 9.535 2.227 C 9.675 2.087 9.865 2.007 10.065 2.007 C 10.265 2.017 10.455 2.097 10.595 2.237 C 10.735 2.377 10.805 2.567 10.805 2.767 L 10.695 14.767 Z  M 9.195 17.243 C 9.195 16.829 9.531 16.493 9.945 16.493 C 10.359 16.493 10.695 16.829 10.695 17.243 C 10.695 17.657 10.359 17.993 9.945 17.993 C 9.531 17.993 9.195 17.657 9.195 17.243 Z " fill-rule="evenodd" fill="rgb(0,0,0)"/></g></svg>