<?xml version="1.0" standalone="no"?><!-- Generator: Gravit.io --><svg xmlns="http://www.w3.org/2000/svg" xmlns:xlink="http://www.w3.org/1999/xlink" style="isolation:isolate" viewBox="0 0 20 20" width="20" height="20"><defs><clipPath id="_clipPath_FtXZYyu3xoeZeS7FncDS3Ag8iriY2XbK"><rect width="20" height="20"/></clipPath></defs><g clip-path="url(#_clipPath_FtXZYyu3xoeZeS7FncDS3Ag8iriY2XbK)"><path d=" M 10.748 3.482 C 8.623 3.196 6.385 4.332 5.418 6.674 C 4.236 6.808 3.25 7.295 2.684 8.074 C 2.032 8.971 1.853 10.105 2.117 11.141 C 2.22 11.542 2.629 11.784 3.03 11.681 C 3.432 11.578 3.673 11.169 3.57 10.768 C 3.413 10.151 3.528 9.466 3.898 8.955 C 4.269 8.445 4.876 8.065 5.916 8.065 C 6.243 8.064 6.532 7.853 6.631 7.541 C 7.271 5.522 8.934 4.751 10.547 4.969 C 12.16 5.187 13.689 6.394 13.934 8.844 C 13.972 9.227 14.294 9.519 14.68 9.52 C 16.062 9.52 16.496 10.256 16.5 10.955 C 16.498 11.225 16.641 11.476 16.876 11.611 C 17.11 11.746 17.399 11.744 17.631 11.607 C 17.864 11.47 18.005 11.218 18 10.947 C 17.993 9.625 16.931 8.392 15.275 8.127 C 14.767 5.445 12.852 3.767 10.748 3.482 Z  M 2.779 12.555 L 11.259 12.555 C 11.689 12.555 12.039 12.891 12.039 13.305 L 12.039 13.305 C 12.039 13.719 11.689 14.055 11.259 14.055 L 2.779 14.055 C 2.349 14.055 2 13.719 2 13.305 L 2 13.305 C 2 12.891 2.349 12.555 2.779 12.555 Z  M 13.628 12.555 L 17.221 12.555 C 17.651 12.555 18 12.891 18 13.305 L 18 13.305 C 18 13.719 17.651 14.055 17.221 14.055 L 13.628 14.055 C 13.198 14.055 12.849 13.719 12.849 13.305 L 12.849 13.305 C 12.849 12.891 13.198 12.555 13.628 12.555 Z  M 2.779 15.061 L 4.746 15.061 C 5.176 15.061 5.525 15.397 5.525 15.811 L 5.525 15.811 C 5.525 16.225 5.176 16.561 4.746 16.561 L 2.779 16.561 C 2.349 16.561 2 16.225 2 15.811 L 2 15.811 C 2 15.397 2.349 15.061 2.779 15.061 Z  M 7.148 15.061 L 17.221 15.061 C 17.651 15.061 18 15.397 18 15.811 L 18 15.811 C 18 16.225 17.651 16.561 17.221 16.561 L 7.148 16.561 C 6.718 16.561 6.369 16.225 6.369 15.811 L 6.369 15.811 C 6.369 15.397 6.718 15.061 7.148 15.061 Z " fill-rule="evenodd" fill="rgb(0,0,0)"/></g></svg>