<?xml version="1.0" standalone="no"?><!-- Generator: Gravit.io --><svg xmlns="http://www.w3.org/2000/svg" xmlns:xlink="http://www.w3.org/1999/xlink" style="isolation:isolate" viewBox="0 0 20 20" width="20" height="20"><defs><clipPath id="_clipPath_sLtMuTKcgRrZZFfyID9w8lOjIbgvYPzO"><rect width="20" height="20"/></clipPath></defs><g clip-path="url(#_clipPath_sLtMuTKcgRrZZFfyID9w8lOjIbgvYPzO)"><path d=" M 10.748 3.395 C 8.623 3.108 6.385 4.244 5.418 6.586 C 4.236 6.72 3.25 7.207 2.684 7.986 C 2.032 8.883 1.853 10.015 2.117 11.051 C 2.179 11.316 2.379 11.527 2.64 11.602 C 2.901 11.678 3.183 11.606 3.376 11.414 C 3.569 11.223 3.644 10.942 3.57 10.68 C 3.413 10.063 3.528 9.378 3.898 8.867 C 4.269 8.357 4.876 7.977 5.916 7.977 C 6.243 7.976 6.532 7.765 6.631 7.453 C 7.271 5.434 8.934 4.663 10.547 4.881 C 12.16 5.099 13.689 6.306 13.934 8.756 C 13.972 9.139 14.294 9.431 14.68 9.432 C 16.062 9.432 16.496 10.168 16.5 10.867 C 16.498 11.138 16.641 11.388 16.876 11.523 C 17.11 11.658 17.399 11.657 17.631 11.519 C 17.864 11.382 18.005 11.13 18 10.859 C 17.993 9.538 16.932 8.305 15.277 8.039 C 14.769 5.355 12.853 3.679 10.748 3.395 Z  M 2.81 12.467 L 11.229 12.467 C 11.676 12.467 12.039 12.83 12.039 13.277 L 12.039 13.277 C 12.039 13.724 11.676 14.087 11.229 14.087 L 2.81 14.087 C 2.363 14.087 2 13.724 2 13.277 L 2 13.277 C 2 12.83 2.363 12.467 2.81 12.467 Z  M 13.659 12.467 L 17.19 12.467 C 17.637 12.467 18 12.83 18 13.277 L 18 13.277 C 18 13.724 17.637 14.087 17.19 14.087 L 13.659 14.087 C 13.212 14.087 12.849 13.724 12.849 13.277 L 12.849 13.277 C 12.849 12.83 13.212 12.467 13.659 12.467 Z  M 2.81 15.029 L 4.715 15.029 C 5.162 15.029 5.525 15.392 5.525 15.839 L 5.525 15.839 C 5.525 16.286 5.162 16.649 4.715 16.649 L 2.81 16.649 C 2.363 16.649 2 16.286 2 15.839 L 2 15.839 C 2 15.392 2.363 15.029 2.81 15.029 Z  M 7.179 15.029 L 17.19 15.029 C 17.637 15.029 18 15.392 18 15.839 L 18 15.839 C 18 16.286 17.637 16.649 17.19 16.649 L 7.179 16.649 C 6.731 16.649 6.369 16.286 6.369 15.839 L 6.369 15.839 C 6.369 15.392 6.731 15.029 7.179 15.029 Z " fill-rule="evenodd" fill="rgb(0,0,0)"/></g></svg>