<?xml version="1.0" standalone="no"?><!-- Generator: Gravit.io --><svg xmlns="http://www.w3.org/2000/svg" xmlns:xlink="http://www.w3.org/1999/xlink" style="isolation:isolate" viewBox="0 0 20 20" width="20" height="20"><defs><clipPath id="_clipPath_x314C08JILwuCkgY63io8TKhhfNn1mpf"><rect width="20" height="20"/></clipPath></defs><g clip-path="url(#_clipPath_x314C08JILwuCkgY63io8TKhhfNn1mpf)"><path d=" M 10.748 2.701 C 8.628 2.415 6.397 3.545 5.426 5.875 C 3.284 6.119 1.993 7.762 2 9.445 C 2.007 11.263 3.47 13.101 5.916 13.101 L 14.68 13.101 C 16.721 13.101 18.008 11.65 18 10.166 C 17.993 8.843 16.931 7.61 15.275 7.345 C 14.767 4.662 12.852 2.985 10.748 2.701 Z  M 10.547 4.187 C 12.16 4.405 13.688 5.612 13.934 8.062 C 13.973 8.445 14.295 8.736 14.68 8.736 C 16.062 8.736 16.496 9.475 16.5 10.174 C 16.504 10.872 16.089 11.601 14.68 11.601 L 5.916 11.601 C 4.164 11.601 3.504 10.531 3.5 9.439 C 3.496 8.347 4.137 7.281 5.916 7.281 C 6.243 7.281 6.532 7.069 6.631 6.758 C 7.271 4.739 8.934 3.969 10.547 4.187 Z  M 2 15.073 C 2 14.383 2.56 13.823 3.25 13.823 C 3.94 13.823 4.5 14.383 4.5 15.073 C 4.5 15.763 3.94 16.323 3.25 16.323 C 2.56 16.323 2 15.763 2 15.073 Z  M 5.375 16.093 C 5.375 15.403 5.935 14.843 6.625 14.843 C 7.315 14.843 7.875 15.403 7.875 16.093 C 7.875 16.783 7.315 17.343 6.625 17.343 C 5.935 17.343 5.375 16.783 5.375 16.093 Z  M 8.75 15.573 C 8.75 14.883 9.31 14.323 10 14.323 C 10.69 14.323 11.25 14.883 11.25 15.573 C 11.25 16.263 10.69 16.823 10 16.823 C 9.31 16.823 8.75 16.263 8.75 15.573 Z  M 12.125 16.073 C 12.125 15.383 12.685 14.823 13.375 14.823 C 14.065 14.823 14.625 15.383 14.625 16.073 C 14.625 16.763 14.065 17.323 13.375 17.323 C 12.685 17.323 12.125 16.763 12.125 16.073 Z  M 15.5 15.073 C 15.5 14.383 16.06 13.823 16.75 13.823 C 17.44 13.823 18 14.383 18 15.073 C 18 15.763 17.44 16.323 16.75 16.323 C 16.06 16.323 15.5 15.763 15.5 15.073 Z " fill-rule="evenodd" fill="rgb(0,0,0)"/></g></svg>