<?xml version="1.0" standalone="no"?><!-- Generator: Gravit.io --><svg xmlns="http://www.w3.org/2000/svg" xmlns:xlink="http://www.w3.org/1999/xlink" style="isolation:isolate" viewBox="0 0 20 20" width="20" height="20"><defs><clipPath id="_clipPath_xZeIMzKmUzTYB21vx8SNAnCmsEqwv6s2"><rect width="20" height="20"/></clipPath></defs><g clip-path="url(#_clipPath_xZeIMzKmUzTYB21vx8SNAnCmsEqwv6s2)"><path d=" M 9.975 2.02 C 9.954 2.021 9.933 2.023 9.912 2.025 C 9.7 2.048 9.507 2.161 9.383 2.334 L 2.48 9.223 C 2.006 9.695 2.342 10.505 3.012 10.504 L 4 10.504 L 4 17.231 C 4 17.645 4.336 17.98 4.75 17.981 L 8.4 17.981 C 8.815 17.98 9.15 17.645 9.15 17.231 L 9.15 13.654 C 9.717 13.654 10.283 13.654 10.85 13.654 L 10.85 17.231 C 10.85 17.645 11.185 17.98 11.6 17.981 L 15.25 17.981 C 15.664 17.98 16 17.645 16 17.231 L 16 10.504 L 16.988 10.504 C 17.658 10.505 17.994 9.695 17.52 9.223 L 10.621 2.338 C 10.478 2.135 10.244 2.016 9.996 2.02 C 9.995 2.02 9.993 2.02 9.992 2.02 C 9.991 2.02 9.99 2.02 9.988 2.02 C 9.988 2.02 9.987 2.02 9.986 2.02 C 9.982 2.02 9.979 2.02 9.975 2.02 L 9.975 2.02 Z  M 10 3.838 L 15.18 9.008 C 14.795 9.044 14.5 9.367 14.5 9.754 L 14.5 16.481 L 12.35 16.481 L 12.35 12.904 C 12.35 12.49 12.014 12.154 11.6 12.154 C 10.533 12.154 9.467 12.154 8.4 12.154 C 7.986 12.154 7.65 12.49 7.65 12.904 L 7.65 16.481 L 5.5 16.481 L 5.5 9.754 C 5.5 9.367 5.205 9.044 4.82 9.008 L 10 3.838 Z " fill="rgb(0,0,0)"/></g></svg>