<?xml version="1.0" standalone="no"?><!-- Generator: Gravit.io --><svg xmlns="http://www.w3.org/2000/svg" xmlns:xlink="http://www.w3.org/1999/xlink" style="isolation:isolate" viewBox="0 0 20 20" width="20" height="20"><defs><clipPath id="_clipPath_oZ6ciZpZnAt2ghbW1k9hkySZ7xpq6nks"><rect width="20" height="20"/></clipPath></defs><g clip-path="url(#_clipPath_oZ6ciZpZnAt2ghbW1k9hkySZ7xpq6nks)"><path d=" M 9.378 2.317 L 2.467 9.283 C 2.253 9.498 2.189 9.821 2.306 10.101 C 2.423 10.381 2.697 10.563 3 10.563 L 4.264 10.563 L 4.264 17.254 C 4.264 17.668 4.599 18.004 5.014 18.004 L 8.336 18.004 C 8.75 18.004 9.086 17.668 9.086 17.254 L 9.086 13.004 L 9.979 13.004 C 9.986 13.004 9.993 13.004 10 13.004 L 10 13.004 C 10.007 13.004 10.014 13.004 10.021 13.004 L 10.914 13.004 L 10.914 17.254 C 10.914 17.668 11.25 18.004 11.664 18.004 L 14.986 18.004 C 15.401 18.004 15.736 17.668 15.736 17.254 L 15.736 10.563 L 17 10.563 C 17.303 10.563 17.577 10.381 17.694 10.101 C 17.811 9.821 17.747 9.498 17.533 9.283 L 10.625 2.319 C 10.59 2.269 10.549 2.223 10.497 2.194 C 10.451 2.137 10.392 2.098 10.321 2.082 C 10.272 2.041 10.211 2.021 10.148 2.008 C 10.098 2.002 10.047 1.997 9.996 1.996 C 9.994 1.996 9.992 1.996 9.99 1.997 C 9.938 1.996 9.886 2.002 9.834 2.012 C 9.775 2.026 9.716 2.046 9.67 2.086 C 9.597 2.105 9.537 2.146 9.491 2.205 C 9.445 2.231 9.409 2.272 9.378 2.317 Z  M 10.021 11.504 C 10.014 11.504 10.007 11.504 10 11.504 L 10 11.504 C 9.993 11.504 9.986 11.504 9.979 11.504 L 8.336 11.504 C 7.922 11.504 7.586 11.84 7.586 12.254 L 7.586 16.504 L 5.764 16.504 L 5.764 9.813 C 5.764 9.399 5.428 9.063 5.014 9.063 L 4.801 9.063 L 10 3.819 L 15.199 9.063 L 14.986 9.063 C 14.572 9.063 14.236 9.399 14.236 9.813 L 14.236 16.504 L 12.414 16.504 L 12.414 12.254 C 12.414 11.84 12.078 11.504 11.664 11.504 L 10.021 11.504 Z " fill-rule="evenodd" fill="rgb(0,0,0)"/></g></svg>