<?xml version="1.0" standalone="no"?><!-- Generator: Gravit.io --><svg xmlns="http://www.w3.org/2000/svg" xmlns:xlink="http://www.w3.org/1999/xlink" style="isolation:isolate" viewBox="0 0 20 20" width="20" height="20"><defs><clipPath id="_clipPath_4Tyii1dL2SqblHiizK6ZifsDveFnXbEv"><rect width="20" height="20"/></clipPath></defs><g clip-path="url(#_clipPath_4Tyii1dL2SqblHiizK6ZifsDveFnXbEv)"><path d=" M 3.544 9.25 C 3.583 8.917 3.648 8.588 3.74 8.267 C 3.795 8.057 3.863 7.852 3.959 7.657 C 4.105 7.228 4.312 6.823 4.577 6.453 C 5.014 6.677 5.469 6.861 5.936 7.002 L 5.936 7.002 L 5.936 7.002 C 5.934 7.012 5.932 7.021 5.93 7.03 C 5.773 7.757 5.677 8.502 5.639 9.25 L 5.639 9.25 L 3.544 9.25 Z  M 5.557 5.254 C 5.963 4.873 6.415 4.549 6.897 4.282 C 6.848 4.37 6.803 4.459 6.76 4.55 C 6.601 4.88 6.46 5.218 6.347 5.565 L 6.347 5.565 C 6.078 5.478 5.813 5.376 5.557 5.254 Z  M 13.103 4.282 C 13.585 4.549 14.037 4.873 14.443 5.254 C 14.187 5.376 13.922 5.478 13.653 5.565 C 13.54 5.218 13.399 4.88 13.24 4.55 C 13.197 4.459 13.152 4.37 13.103 4.282 Z  M 15.423 6.453 C 15.688 6.823 15.895 7.228 16.041 7.657 C 16.137 7.852 16.205 8.057 16.26 8.267 C 16.352 8.588 16.417 8.917 16.456 9.25 L 14.361 9.25 L 14.361 9.25 C 14.323 8.504 14.227 7.764 14.07 7.03 C 14.068 7.021 14.066 7.012 14.064 7.002 L 14.064 7.002 L 14.064 7.002 C 14.531 6.861 14.986 6.677 15.423 6.453 Z  M 14.432 14.756 C 14.029 15.133 13.581 15.453 13.103 15.718 C 13.152 15.63 13.197 15.541 13.24 15.45 C 13.397 15.124 13.537 14.79 13.648 14.448 C 13.916 14.535 14.179 14.635 14.432 14.756 Z  M 6.897 15.718 C 6.419 15.453 5.971 15.133 5.568 14.756 C 5.821 14.635 6.084 14.535 6.352 14.448 C 6.463 14.79 6.603 15.124 6.76 15.45 C 6.803 15.541 6.848 15.63 6.897 15.718 Z  M 2.871 13.634 C 2.303 12.518 2 11.273 2 10 L 2 10 C 2 7.948 2.787 5.97 4.202 4.488 C 4.245 4.436 4.292 4.388 4.34 4.34 C 5.84 2.84 7.88 2 10 2 L 10 2 L 10 2 C 12.12 2 14.16 2.84 15.66 4.34 C 15.708 4.388 15.755 4.436 15.798 4.488 C 17.213 5.97 18 7.948 18 10 L 18 10 C 18 11.273 17.697 12.518 17.129 13.634 L 17.129 13.634 C 17.124 13.645 17.118 13.657 17.114 13.67 C 16.896 14.089 16.643 14.49 16.346 14.864 C 16.332 14.897 16.309 14.925 16.286 14.954 C 16.093 15.2 15.884 15.436 15.66 15.66 C 14.16 17.16 12.12 18 10 18 L 10 18 L 10 18 C 7.88 18 5.84 17.16 4.34 15.66 C 4.116 15.436 3.907 15.2 3.714 14.954 C 3.691 14.925 3.668 14.897 3.654 14.864 C 3.357 14.49 3.104 14.089 2.886 13.67 C 2.882 13.657 2.876 13.645 2.871 13.634 Z  M 5.639 10.75 C 5.677 11.496 5.773 12.236 5.93 12.97 C 5.933 12.984 5.936 12.999 5.939 13.013 C 5.472 13.154 5.018 13.337 4.582 13.555 C 4.578 13.556 4.574 13.558 4.57 13.56 L 4.57 13.56 C 4.012 12.715 3.664 11.75 3.545 10.75 L 5.639 10.75 L 5.639 10.75 Z  M 9.25 16.247 C 9.194 16.209 9.141 16.167 9.09 16.12 C 8.68 15.75 8.35 15.3 8.11 14.8 C 7.999 14.575 7.898 14.344 7.812 14.107 C 8.289 14.029 8.769 13.977 9.25 13.95 L 9.25 16.247 L 9.25 16.247 L 9.25 16.247 Z  M 7.145 9.25 C 7.177 8.614 7.258 7.984 7.385 7.358 L 7.385 7.358 C 8.001 7.468 8.625 7.538 9.25 7.566 L 9.25 9.25 L 7.145 9.25 L 7.145 9.25 Z  M 12.855 10.75 C 12.823 11.392 12.741 12.029 12.612 12.661 C 11.996 12.552 11.375 12.481 10.75 12.449 L 10.75 12.449 L 10.75 10.75 L 12.855 10.75 L 12.855 10.75 Z  M 12.855 9.25 C 12.823 8.614 12.742 7.984 12.615 7.358 C 11.999 7.468 11.375 7.538 10.75 7.566 L 10.75 9.25 L 12.855 9.25 L 12.855 9.25 Z  M 7.145 10.75 C 7.177 11.392 7.259 12.029 7.388 12.661 C 8.004 12.552 8.625 12.481 9.25 12.449 L 9.25 12.449 L 9.25 10.75 L 7.145 10.75 L 7.145 10.75 Z  M 14.361 10.75 C 14.323 11.496 14.227 12.236 14.07 12.97 C 14.067 12.984 14.064 12.999 14.061 13.013 C 14.528 13.154 14.982 13.337 15.418 13.555 C 15.422 13.556 15.426 13.558 15.43 13.56 C 15.988 12.715 16.336 11.75 16.455 10.75 L 14.361 10.75 L 14.361 10.75 Z  M 9.25 3.753 C 9.194 3.791 9.141 3.833 9.09 3.88 C 8.68 4.25 8.35 4.7 8.11 5.2 C 7.997 5.429 7.895 5.664 7.807 5.906 L 7.807 5.906 C 8.285 5.986 8.767 6.039 9.25 6.064 L 9.25 3.753 L 9.25 3.753 L 9.25 3.753 Z  M 10.75 3.753 C 10.806 3.791 10.859 3.833 10.91 3.88 C 11.32 4.25 11.65 4.7 11.89 5.2 C 12.003 5.429 12.105 5.664 12.193 5.906 C 11.715 5.986 11.233 6.039 10.75 6.064 L 10.75 3.753 L 10.75 3.753 L 10.75 3.753 Z  M 10.75 16.247 C 10.806 16.209 10.859 16.167 10.91 16.12 C 11.32 15.75 11.65 15.3 11.89 14.8 C 12.001 14.575 12.102 14.344 12.188 14.107 L 12.188 14.107 C 11.711 14.029 11.231 13.977 10.75 13.95 L 10.75 16.247 L 10.75 16.247 L 10.75 16.247 Z " fill-rule="evenodd" fill="rgb(0,0,0)"/></g></svg>