<?xml version="1.0" standalone="no"?><!-- Generator: Gravit.io --><svg xmlns="http://www.w3.org/2000/svg" xmlns:xlink="http://www.w3.org/1999/xlink" style="isolation:isolate" viewBox="0 0 20 20" width="20" height="20"><defs><clipPath id="_clipPath_Sgv1NKuNCAITgjF7h9SRNlQC6Z0t67S7"><rect width="20" height="20"/></clipPath></defs><g clip-path="url(#_clipPath_Sgv1NKuNCAITgjF7h9SRNlQC6Z0t67S7)"><path d=" M 10.31 16.48 C 10.45 16.62 10.52 16.82 10.52 17.01 C 10.51 17.21 10.42 17.4 10.28 17.54 C 10.13 17.67 9.94 17.74 9.74 17.74 C 9.54 17.73 9.35 17.65 9.22 17.5 C 8.46 16.69 7.74 15.83 7.08 14.93 C 6.5 14.15 5.98 13.32 5.53 12.46 C 5.13 11.7 4.81 10.9 4.58 10.07 C 4.37 9.32 4.25 8.54 4.25 7.75 C 4.25 6.23 4.86 4.76 5.93 3.69 C 7.01 2.61 8.48 2 10 2 C 11.53 2 12.99 2.61 14.07 3.69 C 15.15 4.76 15.75 6.23 15.75 7.75 C 15.74 8.5 15.64 9.24 15.44 9.96 C 15.39 10.15 15.27 10.32 15.09 10.42 C 14.92 10.52 14.72 10.54 14.52 10.49 C 14.33 10.44 14.17 10.31 14.07 10.14 C 13.97 9.97 13.94 9.76 14 9.57 C 14.16 8.97 14.24 8.36 14.25 7.75 C 14.25 6.62 13.8 5.54 13 4.74 C 12.21 3.95 11.13 3.5 10 3.5 C 8.87 3.5 7.79 3.95 7 4.74 C 6.2 5.54 5.75 6.62 5.75 7.75 C 5.75 8.4 5.85 9.04 6.02 9.66 C 6.23 10.39 6.51 11.09 6.86 11.76 C 7.28 12.56 7.75 13.32 8.29 14.04 C 8.92 14.89 9.59 15.7 10.31 16.48 Z  M 8.25 7.75 C 8.25 6.784 9.034 6 10 6 C 10.966 6 11.75 6.784 11.75 7.75 C 11.75 8.716 10.966 9.5 10 9.5 C 9.034 9.5 8.25 8.716 8.25 7.75 Z  M 14.785 15.825 L 16.74 17.78 C 16.88 17.92 17.07 18 17.27 18 C 17.47 18 17.66 17.92 17.8 17.78 C 17.94 17.64 18.02 17.45 18.02 17.25 C 18.02 17.05 17.94 16.86 17.8 16.72 L 15.845 14.765 L 17.8 12.81 C 17.94 12.67 18.02 12.48 18.02 12.28 C 18.02 12.08 17.94 11.89 17.8 11.75 C 17.66 11.61 17.47 11.53 17.27 11.53 C 17.07 11.53 16.88 11.61 16.74 11.75 L 14.785 13.705 L 12.83 11.75 C 12.69 11.61 12.5 11.53 12.3 11.53 C 12.1 11.53 11.91 11.61 11.77 11.75 C 11.63 11.89 11.55 12.08 11.55 12.28 C 11.55 12.48 11.63 12.67 11.77 12.81 L 13.725 14.765 L 11.77 16.72 C 11.63 16.86 11.55 17.05 11.55 17.25 C 11.55 17.45 11.63 17.64 11.77 17.78 C 11.91 17.92 12.1 18 12.3 18 C 12.5 18 12.69 17.92 12.83 17.78 L 14.785 15.825 Z " fill-rule="evenodd" fill="rgb(0,0,0)"/></g></svg>