<?xml version="1.0" standalone="no"?><!-- Generator: Gravit.io --><svg xmlns="http://www.w3.org/2000/svg" xmlns:xlink="http://www.w3.org/1999/xlink" style="isolation:isolate" viewBox="0 0 20 20" width="20" height="20"><defs><clipPath id="_clipPath_hDKD0Y4qzeOyN2QUkPHVZtDosRKNkxbk"><rect width="20" height="20"/></clipPath></defs><g clip-path="url(#_clipPath_hDKD0Y4qzeOyN2QUkPHVZtDosRKNkxbk)"><path d=" M 10 2 C 8.48 2 7.01 2.61 5.93 3.68 C 4.86 4.76 4.25 6.23 4.25 7.75 C 4.25 8.57 4.369 9.39 4.609 10.18 C 4.909 11.17 5.32 12.129 5.84 13.039 C 6.27 13.789 6.74 14.509 7.27 15.199 C 7.95 16.089 8.679 16.95 9.449 17.77 C 9.455 17.775 9.463 17.776 9.469 17.781 C 9.474 17.787 9.475 17.795 9.48 17.801 C 9.53 17.843 9.588 17.87 9.645 17.9 C 9.664 17.911 9.681 17.927 9.701 17.936 C 9.761 17.961 9.824 17.969 9.889 17.979 C 9.92 17.984 9.948 17.998 9.98 18 C 9.987 18 9.993 17.996 10 17.996 C 10.007 17.996 10.013 18 10.02 18 C 10.052 17.998 10.08 17.984 10.111 17.979 C 10.176 17.969 10.239 17.961 10.299 17.936 C 10.319 17.927 10.336 17.911 10.355 17.9 C 10.412 17.87 10.47 17.843 10.52 17.801 C 10.525 17.795 10.526 17.787 10.531 17.781 C 10.537 17.776 10.545 17.775 10.551 17.77 C 11.351 16.91 12.12 16.01 12.83 15.07 C 13.37 14.35 13.859 13.601 14.289 12.811 C 14.759 11.951 15.14 11.03 15.42 10.08 C 15.64 9.33 15.75 8.54 15.75 7.75 C 15.75 6.23 15.14 4.76 14.07 3.68 C 12.99 2.61 11.52 2 10 2 Z  M 10 3.5 C 11.13 3.5 12.21 3.95 13.01 4.74 C 13.8 5.54 14.25 6.62 14.25 7.75 C 14.25 8.4 14.16 9.04 13.98 9.67 C 13.73 10.51 13.391 11.32 12.971 12.09 C 12.581 12.81 12.131 13.51 11.631 14.16 C 11.116 14.841 10.567 15.49 9.998 16.121 C 9.463 15.53 8.945 14.922 8.461 14.289 C 7.981 13.649 7.541 12.989 7.141 12.289 C 6.681 11.489 6.311 10.63 6.051 9.74 C 5.851 9.1 5.75 8.42 5.75 7.75 C 5.75 6.62 6.2 5.54 6.99 4.74 C 7.79 3.95 8.87 3.5 10 3.5 Z  M 8.25 7.75 C 8.25 6.784 9.034 6 10 6 C 10.966 6 11.75 6.784 11.75 7.75 C 11.75 8.716 10.966 9.5 10 9.5 C 9.034 9.5 8.25 8.716 8.25 7.75 Z " fill-rule="evenodd" fill="rgb(0,0,0)"/></g></svg>