<?xml version="1.0" standalone="no"?><!-- Generator: Gravit.io --><svg xmlns="http://www.w3.org/2000/svg" xmlns:xlink="http://www.w3.org/1999/xlink" style="isolation:isolate" viewBox="0 0 20 20" width="20" height="20"><defs><clipPath id="_clipPath_4Dt9VLJdytsSMEIVeP5WMeO78fDuLqU2"><rect width="20" height="20"/></clipPath></defs><g clip-path="url(#_clipPath_4Dt9VLJdytsSMEIVeP5WMeO78fDuLqU2)"><path d=" M 10.748 3.186 C 8.628 2.899 6.397 4.031 5.426 6.361 C 3.284 6.605 1.993 8.247 2 9.93 C 2.007 11.747 3.47 13.586 5.916 13.586 L 14.68 13.586 C 16.721 13.586 18.008 12.134 18 10.65 C 17.993 9.328 16.932 8.096 15.277 7.83 C 14.769 5.147 12.853 3.47 10.748 3.186 Z  M 10.547 4.672 C 12.16 4.89 13.688 6.097 13.934 8.547 C 13.972 8.93 14.294 9.223 14.68 9.223 C 16.062 9.223 16.496 9.96 16.5 10.658 C 16.504 11.357 16.089 12.086 14.68 12.086 L 5.916 12.086 C 4.164 12.086 3.504 11.016 3.5 9.924 C 3.496 8.832 4.137 7.768 5.916 7.768 C 6.243 7.768 6.532 7.556 6.631 7.244 C 7.271 5.225 8.934 4.454 10.547 4.672 Z  M 6.55 14.358 C 6.363 14.361 6.214 14.514 6.217 14.7 L 6.217 15.023 L 5.937 14.861 C 5.832 14.799 5.702 14.797 5.597 14.858 C 5.491 14.918 5.426 15.03 5.426 15.152 C 5.427 15.274 5.493 15.386 5.599 15.445 L 5.878 15.607 L 5.599 15.768 C 5.492 15.828 5.426 15.94 5.425 16.061 C 5.424 16.183 5.489 16.296 5.595 16.357 C 5.701 16.417 5.831 16.416 5.935 16.353 L 6.215 16.192 L 6.215 16.515 C 6.213 16.637 6.277 16.75 6.382 16.812 C 6.487 16.873 6.617 16.873 6.722 16.812 C 6.828 16.751 6.892 16.638 6.89 16.516 L 6.89 16.193 L 7.17 16.355 C 7.275 16.417 7.404 16.418 7.51 16.358 C 7.616 16.298 7.681 16.185 7.68 16.064 C 7.68 15.942 7.614 15.83 7.508 15.77 L 7.229 15.609 L 7.508 15.447 C 7.615 15.388 7.681 15.276 7.681 15.154 C 7.682 15.033 7.617 14.92 7.512 14.86 C 7.406 14.799 7.276 14.8 7.172 14.862 L 6.892 15.024 L 6.892 14.701 C 6.893 14.609 6.858 14.521 6.793 14.457 C 6.729 14.392 6.641 14.357 6.55 14.358 Z  M 13.4 14.358 C 13.213 14.361 13.064 14.514 13.067 14.7 L 13.067 15.023 L 12.787 14.861 C 12.682 14.799 12.552 14.797 12.447 14.858 C 12.341 14.918 12.276 15.03 12.276 15.152 C 12.277 15.274 12.343 15.386 12.449 15.445 L 12.728 15.607 L 12.449 15.768 C 12.342 15.828 12.276 15.94 12.275 16.061 C 12.274 16.183 12.339 16.296 12.445 16.357 C 12.551 16.417 12.681 16.416 12.785 16.353 L 13.065 16.192 L 13.065 16.515 C 13.063 16.637 13.127 16.75 13.232 16.812 C 13.337 16.873 13.467 16.873 13.572 16.812 C 13.678 16.751 13.742 16.638 13.74 16.516 L 13.74 16.193 L 14.02 16.355 C 14.125 16.417 14.254 16.418 14.36 16.358 C 14.466 16.298 14.531 16.185 14.53 16.064 C 14.53 15.942 14.464 15.83 14.358 15.77 L 14.079 15.609 L 14.358 15.447 C 14.465 15.388 14.531 15.276 14.531 15.154 C 14.532 15.033 14.467 14.92 14.362 14.86 C 14.256 14.799 14.126 14.8 14.022 14.862 L 13.742 15.024 L 13.742 14.701 C 13.743 14.609 13.708 14.521 13.643 14.457 C 13.579 14.392 13.491 14.357 13.4 14.358 Z " fill-rule="evenodd" fill="rgb(0,0,0)"/></g></svg>