<?xml version="1.0" standalone="no"?><!-- Generator: Gravit.io --><svg xmlns="http://www.w3.org/2000/svg" xmlns:xlink="http://www.w3.org/1999/xlink" style="isolation:isolate" viewBox="0 0 20 20" width="20" height="20"><defs><clipPath id="_clipPath_KZa7lEhFNKkPelbo9lnsRfUece5WYFCa"><rect width="20" height="20"/></clipPath></defs><g clip-path="url(#_clipPath_KZa7lEhFNKkPelbo9lnsRfUece5WYFCa)"><path d=" M 10.748 4.821 C 8.628 4.534 6.397 5.666 5.426 7.996 C 3.284 8.24 1.993 9.884 2 11.567 C 2.007 13.384 3.47 15.223 5.916 15.223 L 14.68 15.223 C 16.721 15.223 18.008 13.769 18 12.285 C 17.993 10.963 16.931 9.732 15.275 9.467 C 14.767 6.783 12.853 5.105 10.748 4.821 Z  M 10.547 6.307 C 12.16 6.525 13.688 7.733 13.934 10.184 C 13.973 10.567 14.295 10.858 14.68 10.858 C 16.062 10.858 16.496 11.597 16.5 12.295 C 16.504 12.993 16.089 13.723 14.68 13.723 L 5.916 13.723 C 4.164 13.723 3.504 12.653 3.5 11.561 C 3.496 10.469 4.137 9.403 5.916 9.403 C 6.243 9.403 6.532 9.191 6.631 8.879 C 7.271 6.86 8.934 6.089 10.547 6.307 Z " fill="rgb(0,0,0)"/></g></svg>