<?xml version="1.0" standalone="no"?><!-- Generator: Gravit.io --><svg xmlns="http://www.w3.org/2000/svg" xmlns:xlink="http://www.w3.org/1999/xlink" style="isolation:isolate" viewBox="0 0 20 20" width="20" height="20"><defs><clipPath id="_clipPath_9DiCceaCsMcROu6r2chRp891Tt9kKlsO"><rect width="20" height="20"/></clipPath></defs><g clip-path="url(#_clipPath_9DiCceaCsMcROu6r2chRp891Tt9kKlsO)"><path d=" M 17.25 4 C 17.45 4 17.64 4.08 17.78 4.22 C 17.92 4.36 18 4.55 18 4.75 C 18 4.95 17.92 5.14 17.78 5.28 C 17.64 5.42 17.45 5.5 17.25 5.5 L 2.75 5.5 C 2.55 5.5 2.36 5.42 2.22 5.28 C 2.08 5.14 2 4.95 2 4.75 C 2 4.55 2.08 4.36 2.22 4.22 C 2.36 4.08 2.55 4 2.75 4 L 17.25 4 Z  M 17.25 9.25 C 17.45 9.25 17.64 9.33 17.78 9.47 C 17.92 9.61 18 9.8 18 10 C 18 10.2 17.92 10.39 17.78 10.53 C 17.64 10.67 17.45 10.75 17.25 10.75 L 2.75 10.75 C 2.55 10.75 2.36 10.67 2.22 10.53 C 2.08 10.39 2 10.2 2 10 C 2 9.8 2.08 9.61 2.22 9.47 C 2.36 9.33 2.55 9.25 2.75 9.25 L 17.25 9.25 Z  M 17.25 14.5 C 17.45 14.5 17.64 14.58 17.78 14.72 C 17.92 14.86 18 15.05 18 15.25 C 18 15.45 17.92 15.64 17.78 15.78 C 17.64 15.92 17.45 16 17.25 16 L 2.75 16 C 2.55 16 2.36 15.92 2.22 15.78 C 2.08 15.64 2 15.45 2 15.25 C 2 15.05 2.08 14.86 2.22 14.72 C 2.36 14.58 2.55 14.5 2.75 14.5 L 17.25 14.5 Z " fill-rule="evenodd" fill="rgb(0,0,0)"/></g></svg>