<?xml version="1.0" standalone="no"?><!-- Generator: Gravit.io --><svg xmlns="http://www.w3.org/2000/svg" xmlns:xlink="http://www.w3.org/1999/xlink" style="isolation:isolate" viewBox="0 0 20 20" width="20" height="20"><defs><clipPath id="_clipPath_NIbnvHwWAg3VsMFteV8mFuyKf3me5O98"><rect width="20" height="20"/></clipPath></defs><g clip-path="url(#_clipPath_NIbnvHwWAg3VsMFteV8mFuyKf3me5O98)"><path d=" M 15.15 5.52 C 15.35 5.52 15.54 5.6 15.68 5.74 C 15.82 5.88 15.9 6.07 15.9 6.27 C 15.9 6.47 15.82 6.66 15.68 6.8 C 15.54 6.94 15.35 7.02 15.15 7.02 L 4.85 7.02 C 4.65 7.02 4.46 6.94 4.32 6.8 C 4.18 6.66 4.1 6.47 4.1 6.27 C 4.1 6.07 4.18 5.88 4.32 5.74 C 4.46 5.6 4.65 5.52 4.85 5.52 L 15.15 5.52 Z  M 15.15 9.25 C 15.35 9.25 15.54 9.33 15.68 9.47 C 15.82 9.61 15.9 9.8 15.9 10 C 15.9 10.2 15.82 10.39 15.68 10.53 C 15.54 10.67 15.35 10.75 15.15 10.75 L 4.85 10.75 C 4.65 10.75 4.46 10.67 4.32 10.53 C 4.18 10.39 4.1 10.2 4.1 10 C 4.1 9.8 4.18 9.61 4.32 9.47 C 4.46 9.33 4.65 9.25 4.85 9.25 L 15.15 9.25 Z  M 15.15 12.98 C 15.35 12.98 15.54 13.06 15.68 13.2 C 15.82 13.34 15.9 13.53 15.9 13.73 C 15.9 13.93 15.82 14.12 15.68 14.26 C 15.54 14.4 15.35 14.48 15.15 14.48 L 4.85 14.48 C 4.65 14.48 4.46 14.4 4.32 14.26 C 4.18 14.12 4.1 13.93 4.1 13.73 C 4.1 13.53 4.18 13.34 4.32 13.2 C 4.46 13.06 4.65 12.98 4.85 12.98 L 15.15 12.98 Z " fill-rule="evenodd" fill="rgb(0,0,0)"/></g></svg>