<?xml version="1.0" standalone="no"?><!-- Generator: Gravit.io --><svg xmlns="http://www.w3.org/2000/svg" xmlns:xlink="http://www.w3.org/1999/xlink" style="isolation:isolate" viewBox="0 0 20 20" width="20" height="20"><defs><clipPath id="_clipPath_YsK3yfFRae2xgK9CB8x7sKFMduzZSieE"><rect width="20" height="20"/></clipPath></defs><g clip-path="url(#_clipPath_YsK3yfFRae2xgK9CB8x7sKFMduzZSieE)"><path d=" M 15.25 5.45 C 15.45 5.45 15.64 5.53 15.78 5.67 C 15.92 5.81 16 6 16 6.2 C 16 6.4 15.92 6.59 15.78 6.73 C 15.64 6.87 15.45 6.95 15.25 6.95 L 4.75 6.95 C 4.55 6.95 4.36 6.87 4.22 6.73 C 4.08 6.59 4 6.4 4 6.2 C 4 6 4.08 5.81 4.22 5.67 C 4.36 5.53 4.55 5.45 4.75 5.45 L 15.25 5.45 Z  M 15.25 9.25 C 15.45 9.25 15.64 9.33 15.78 9.47 C 15.92 9.61 16 9.8 16 10 C 16 10.2 15.92 10.39 15.78 10.53 C 15.64 10.67 15.45 10.75 15.25 10.75 L 4.75 10.75 C 4.55 10.75 4.36 10.67 4.22 10.53 C 4.08 10.39 4 10.2 4 10 C 4 9.8 4.08 9.61 4.22 9.47 C 4.36 9.33 4.55 9.25 4.75 9.25 L 15.25 9.25 Z  M 15.25 13.05 C 15.45 13.05 15.64 13.13 15.78 13.27 C 15.92 13.41 16 13.6 16 13.8 C 16 14 15.92 14.19 15.78 14.33 C 15.64 14.47 15.45 14.55 15.25 14.55 L 4.75 14.55 C 4.55 14.55 4.36 14.47 4.22 14.33 C 4.08 14.19 4 14 4 13.8 C 4 13.6 4.08 13.41 4.22 13.27 C 4.36 13.13 4.55 13.05 4.75 13.05 L 15.25 13.05 Z " fill-rule="evenodd" fill="rgb(0,0,0)"/></g></svg>