<?xml version="1.0" standalone="no"?><!-- Generator: Gravit.io --><svg xmlns="http://www.w3.org/2000/svg" xmlns:xlink="http://www.w3.org/1999/xlink" style="isolation:isolate" viewBox="0 0 20 20" width="20" height="20"><defs><clipPath id="_clipPath_Uzd43Y4aSYHmsUIKOLZYUiIEzuA8o1Ut"><rect width="20" height="20"/></clipPath></defs><g clip-path="url(#_clipPath_Uzd43Y4aSYHmsUIKOLZYUiIEzuA8o1Ut)"><path d=" M 3.75 2.003 C 2.792 2.003 2 2.795 2 3.753 L 2 17.245 C 1.999 17.549 2.182 17.823 2.463 17.94 C 2.743 18.056 3.067 17.992 3.281 17.776 L 6.783 14.273 L 16.25 14.273 C 17.208 14.273 18 13.48 18 12.523 L 18 3.753 C 18 2.795 17.208 2.003 16.25 2.003 L 3.75 2.003 Z  M 3.75 3.503 L 16.25 3.503 C 16.396 3.503 16.5 3.607 16.5 3.753 L 16.5 12.523 C 16.5 12.669 16.396 12.773 16.25 12.773 L 6.473 12.773 C 6.274 12.773 6.084 12.852 5.943 12.993 L 3.5 15.435 L 3.5 3.753 C 3.5 3.607 3.604 3.503 3.75 3.503 Z " fill="rgb(0,0,0)"/></g></svg>