<?xml version="1.0" standalone="no"?><!-- Generator: Gravit.io --><svg xmlns="http://www.w3.org/2000/svg" xmlns:xlink="http://www.w3.org/1999/xlink" style="isolation:isolate" viewBox="0 0 20 20" width="20" height="20"><defs><clipPath id="_clipPath_eRUVJ0Jbb6GIHpbdxss5BHZuD6SOndwi"><rect width="20" height="20"/></clipPath></defs><g clip-path="url(#_clipPath_eRUVJ0Jbb6GIHpbdxss5BHZuD6SOndwi)"><path d=" M 2.75 4 C 2.336 4 2 4.336 2 4.75 L 2 15.25 C 2 15.664 2.336 16 2.75 16 L 17.25 16 C 17.664 16 18 15.664 18 15.25 L 18 4.75 C 18 4.336 17.664 4 17.25 4 L 2.75 4 Z  M 3.5 5.5 L 16.5 5.5 L 16.5 14.5 L 3.5 14.5 L 3.5 5.5 Z  M 5.1 6.32 C 4.829 6.316 4.578 6.459 4.441 6.692 C 4.305 6.926 4.305 7.215 4.441 7.448 C 4.578 7.682 4.829 7.824 5.1 7.82 L 6.061 7.82 C 6.331 7.824 6.583 7.682 6.719 7.448 C 6.855 7.215 6.855 6.926 6.719 6.692 C 6.583 6.459 6.331 6.316 6.061 6.32 L 5.1 6.32 Z  M 13.939 6.32 C 13.669 6.316 13.417 6.459 13.281 6.692 C 13.145 6.926 13.145 7.215 13.281 7.448 C 13.417 7.682 13.669 7.824 13.939 7.82 L 14.9 7.82 C 15.171 7.824 15.422 7.682 15.559 7.448 C 15.695 7.215 15.695 6.926 15.559 6.692 C 15.422 6.459 15.171 6.316 14.9 6.32 L 13.939 6.32 Z  M 5.1 9.299 C 4.829 9.295 4.578 9.437 4.441 9.671 C 4.305 9.904 4.305 10.193 4.441 10.427 C 4.578 10.661 4.829 10.803 5.1 10.799 L 6.061 10.799 C 6.331 10.803 6.583 10.661 6.719 10.427 C 6.855 10.193 6.855 9.904 6.719 9.671 C 6.583 9.437 6.331 9.295 6.061 9.299 L 5.1 9.299 Z  M 13.939 9.299 C 13.669 9.295 13.417 9.437 13.281 9.671 C 13.145 9.904 13.145 10.193 13.281 10.427 C 13.417 10.661 13.669 10.803 13.939 10.799 L 14.9 10.799 C 15.171 10.803 15.422 10.661 15.559 10.427 C 15.695 10.193 15.695 9.904 15.559 9.671 C 15.422 9.437 15.171 9.295 14.9 9.299 L 13.939 9.299 Z  M 5.1 12.18 C 4.829 12.176 4.578 12.318 4.441 12.552 C 4.305 12.785 4.305 13.074 4.441 13.308 C 4.578 13.541 4.829 13.684 5.1 13.68 L 6.061 13.68 C 6.331 13.684 6.583 13.541 6.719 13.308 C 6.855 13.074 6.855 12.785 6.719 12.552 C 6.583 12.318 6.331 12.176 6.061 12.18 L 5.1 12.18 Z  M 13.939 12.18 C 13.669 12.176 13.417 12.318 13.281 12.552 C 13.145 12.785 13.145 13.074 13.281 13.308 C 13.417 13.541 13.669 13.684 13.939 13.68 L 14.9 13.68 C 15.171 13.684 15.422 13.541 15.559 13.308 C 15.695 13.074 15.695 12.785 15.559 12.552 C 15.422 12.318 15.171 12.176 14.9 12.18 L 13.939 12.18 Z " fill-rule="evenodd" fill="rgb(0,0,0)"/></g></svg>