<?xml version="1.0" standalone="no"?><!-- Generator: Gravit.io --><svg xmlns="http://www.w3.org/2000/svg" xmlns:xlink="http://www.w3.org/1999/xlink" style="isolation:isolate" viewBox="0 0 20 20" width="20" height="20"><defs><clipPath id="_clipPath_94VzAC3gHcqczhQOY3pBa0V7zdKvSuXE"><rect width="20" height="20"/></clipPath></defs><g clip-path="url(#_clipPath_94VzAC3gHcqczhQOY3pBa0V7zdKvSuXE)"><path d=" M 2.75 2.5 C 2.336 2.5 2 2.836 2 3.25 L 2 16.75 C 2 17.164 2.336 17.5 2.75 17.5 L 17.25 17.5 C 17.664 17.5 18 17.164 18 16.75 L 18 3.25 C 18 2.836 17.664 2.5 17.25 2.5 L 2.75 2.5 Z  M 3.5 4 L 16.5 4 L 16.5 16 L 3.5 16 L 3.5 4 Z  M 5.1 4.879 C 4.829 4.875 4.578 5.017 4.441 5.251 C 4.305 5.484 4.305 5.773 4.441 6.007 C 4.578 6.241 4.829 6.383 5.1 6.379 L 6.061 6.379 C 6.331 6.383 6.583 6.241 6.719 6.007 C 6.855 5.773 6.855 5.484 6.719 5.251 C 6.583 5.017 6.331 4.875 6.061 4.879 L 5.1 4.879 Z  M 13.939 4.879 C 13.669 4.875 13.417 5.017 13.281 5.251 C 13.145 5.484 13.145 5.773 13.281 6.007 C 13.417 6.241 13.669 6.383 13.939 6.379 L 14.9 6.379 C 15.171 6.383 15.422 6.241 15.559 6.007 C 15.695 5.773 15.695 5.484 15.559 5.251 C 15.422 5.017 15.171 4.875 14.9 4.879 L 13.939 4.879 Z  M 5.1 7.857 C 4.829 7.854 4.578 7.996 4.441 8.229 C 4.305 8.463 4.305 8.752 4.441 8.986 C 4.578 9.219 4.829 9.361 5.1 9.357 L 6.061 9.357 C 6.331 9.361 6.583 9.219 6.719 8.986 C 6.855 8.752 6.855 8.463 6.719 8.229 C 6.583 7.996 6.331 7.854 6.061 7.857 L 5.1 7.857 Z  M 5.1 10.738 C 4.829 10.734 4.578 10.877 4.441 11.11 C 4.305 11.344 4.305 11.633 4.441 11.866 C 4.578 12.1 4.829 12.242 5.1 12.238 L 6.061 12.238 C 6.331 12.242 6.583 12.1 6.719 11.866 C 6.855 11.633 6.855 11.344 6.719 11.11 C 6.583 10.877 6.331 10.734 6.061 10.738 L 5.1 10.738 Z  M 13.939 7.857 C 13.669 7.854 13.417 7.996 13.281 8.229 C 13.145 8.463 13.145 8.752 13.281 8.986 C 13.417 9.219 13.669 9.361 13.939 9.357 L 14.9 9.357 C 15.171 9.361 15.422 9.219 15.559 8.986 C 15.695 8.752 15.695 8.463 15.559 8.229 C 15.422 7.996 15.171 7.854 14.9 7.857 L 13.939 7.857 Z  M 13.939 10.738 C 13.669 10.734 13.417 10.877 13.281 11.11 C 13.145 11.344 13.145 11.633 13.281 11.866 C 13.417 12.1 13.669 12.242 13.939 12.238 L 14.9 12.238 C 15.171 12.242 15.422 12.1 15.559 11.866 C 15.695 11.633 15.695 11.344 15.559 11.11 C 15.422 10.877 15.171 10.734 14.9 10.738 L 13.939 10.738 Z  M 5.1 13.621 C 4.829 13.617 4.578 13.759 4.441 13.993 C 4.305 14.227 4.305 14.516 4.441 14.749 C 4.578 14.983 4.829 15.125 5.1 15.121 L 6.061 15.121 C 6.331 15.125 6.583 14.983 6.719 14.749 C 6.855 14.516 6.855 14.227 6.719 13.993 C 6.583 13.759 6.331 13.617 6.061 13.621 L 5.1 13.621 Z  M 13.939 13.621 C 13.669 13.617 13.417 13.759 13.281 13.993 C 13.145 14.227 13.145 14.516 13.281 14.749 C 13.417 14.983 13.669 15.125 13.939 15.121 L 14.9 15.121 C 15.171 15.125 15.422 14.983 15.559 14.749 C 15.695 14.516 15.695 14.227 15.559 13.993 C 15.422 13.759 15.171 13.617 14.9 13.621 L 13.939 13.621 Z " fill-rule="evenodd" fill="rgb(0,0,0)"/></g></svg>