<?xml version="1.0" standalone="no"?><!-- Generator: Gravit.io --><svg xmlns="http://www.w3.org/2000/svg" xmlns:xlink="http://www.w3.org/1999/xlink" style="isolation:isolate" viewBox="0 0 20 20" width="20" height="20"><defs><clipPath id="_clipPath_hszwhnn3Kv5eQkA3PqRKctXpRoinQO6s"><rect width="20" height="20"/></clipPath></defs><g clip-path="url(#_clipPath_hszwhnn3Kv5eQkA3PqRKctXpRoinQO6s)"><g><path d=" M 5.5 12.519 C 3.99 12.519 2.75 13.759 2.75 15.269 C 2.75 16.778 3.99 18.019 5.5 18.019 C 7.01 18.019 8.25 16.778 8.25 15.269 C 8.25 13.759 7.01 12.519 5.5 12.519 Z  M 5.5 14.019 C 6.198 14.019 6.75 14.57 6.75 15.269 C 6.75 15.965 6.198 16.519 5.5 16.519 C 4.802 16.519 4.25 15.965 4.25 15.269 C 4.25 14.57 4.802 14.019 5.5 14.019 Z " fill="rgb(0,0,0)"/><path d=" M 14.5 11.493 C 12.99 11.493 11.75 12.733 11.75 14.243 C 11.75 15.752 12.99 16.993 14.5 16.993 C 16.01 16.993 17.25 15.752 17.25 14.243 C 17.25 12.733 16.01 11.493 14.5 11.493 Z  M 14.5 12.993 C 15.198 12.993 15.75 13.545 15.75 14.243 C 15.75 14.94 15.198 15.493 14.5 15.493 C 13.802 15.493 13.25 14.94 13.25 14.243 C 13.25 13.545 13.802 12.993 14.5 12.993 Z " fill="rgb(0,0,0)"/><path d=" M 7.488 3.007 C 7.289 3.01 7.1 3.092 6.961 3.235 C 6.823 3.378 6.747 3.57 6.75 3.769 L 6.75 15.269 C 6.746 15.539 6.888 15.791 7.122 15.927 C 7.355 16.063 7.644 16.063 7.878 15.927 C 8.112 15.791 8.254 15.539 8.25 15.269 L 8.25 3.769 C 8.253 3.566 8.174 3.37 8.03 3.226 C 7.887 3.083 7.691 3.004 7.488 3.007 Z " fill="rgb(0,0,0)"/><path d=" M 16.488 1.981 C 16.289 1.985 16.1 2.067 15.961 2.209 C 15.823 2.352 15.747 2.544 15.75 2.743 L 15.75 14.243 C 15.746 14.514 15.888 14.765 16.122 14.902 C 16.355 15.038 16.644 15.038 16.878 14.902 C 17.112 14.765 17.254 14.514 17.25 14.243 L 17.25 2.743 C 17.253 2.54 17.174 2.345 17.03 2.201 C 16.887 2.058 16.691 1.978 16.488 1.981 Z " fill="rgb(0,0,0)"/><path d=" M 16.467 1.993 C 16.45 1.994 16.433 1.995 16.416 1.997 L 7.416 3.023 C 7.145 3.046 6.907 3.215 6.796 3.464 C 6.685 3.713 6.718 4.002 6.881 4.22 C 7.045 4.438 7.314 4.55 7.584 4.513 L 16.584 3.487 C 16.983 3.439 17.272 3.085 17.241 2.684 C 17.209 2.284 16.868 1.979 16.467 1.993 Z " fill="rgb(0,0,0)"/></g></g></svg>