<?xml version="1.0" standalone="no"?><!-- Generator: Gravit.io --><svg xmlns="http://www.w3.org/2000/svg" xmlns:xlink="http://www.w3.org/1999/xlink" style="isolation:isolate" viewBox="0 0 20 20" width="20" height="20"><defs><clipPath id="_clipPath_wV6FWgIojHwTAprDlOwQzMebTgMvzNoP"><rect width="20" height="20"/></clipPath></defs><g clip-path="url(#_clipPath_wV6FWgIojHwTAprDlOwQzMebTgMvzNoP)"><path d=" M 6.75 17.25 C 6.75 17.45 6.67 17.64 6.53 17.78 C 6.39 17.92 6.2 18 6 18 C 5.8 18 5.61 17.92 5.47 17.78 C 5.33 17.64 5.25 17.45 5.25 17.25 L 5.25 2.75 C 5.25 2.55 5.33 2.36 5.47 2.22 C 5.61 2.08 5.8 2 6 2 C 6.2 2 6.39 2.08 6.53 2.22 C 6.67 2.36 6.75 2.55 6.75 2.75 L 6.75 17.25 Z  M 14.75 17.25 C 14.75 17.45 14.67 17.64 14.53 17.78 C 14.39 17.92 14.2 18 14 18 C 13.8 18 13.61 17.92 13.47 17.78 C 13.33 17.64 13.25 17.45 13.25 17.25 L 13.25 2.75 C 13.25 2.55 13.33 2.36 13.47 2.22 C 13.61 2.08 13.8 2 14 2 C 14.2 2 14.39 2.08 14.53 2.22 C 14.67 2.36 14.75 2.55 14.75 2.75 L 14.75 17.25 Z " fill-rule="evenodd" fill="rgb(0,0,0)"/></g></svg>