<?xml version="1.0" standalone="no"?><!-- Generator: Gravit.io --><svg xmlns="http://www.w3.org/2000/svg" xmlns:xlink="http://www.w3.org/1999/xlink" style="isolation:isolate" viewBox="0 0 20 20" width="20" height="20"><defs><clipPath id="_clipPath_3Ydz7J1A3goNNSbH9ePJGQdARVQD1bD1"><rect width="20" height="20"/></clipPath></defs><g clip-path="url(#_clipPath_3Ydz7J1A3goNNSbH9ePJGQdARVQD1bD1)"><g><path d=" M 4.645 2.012 C 4.459 2.021 4.283 2.098 4.15 2.229 C 2.823 3.557 2 5.397 2 7.418 C 2 9.258 2.681 10.951 3.809 12.237 C 4.031 12.49 4.396 12.564 4.699 12.416 C 5.01 12.266 5.411 12.168 5.916 12.168 C 6.243 12.168 6.532 11.957 6.631 11.645 C 6.878 10.867 7.279 10.29 7.766 9.872 C 7.923 9.737 8.017 9.543 8.026 9.336 C 8.035 9.129 7.959 8.928 7.814 8.78 C 6.266 7.189 5.48 5.228 5.432 2.747 C 5.428 2.544 5.342 2.351 5.193 2.213 C 5.045 2.075 4.847 2.002 4.645 2.012 Z  M 4.293 4.653 C 4.621 6.411 5.277 8.001 6.41 9.319 C 6.041 9.735 5.716 10.2 5.479 10.762 C 5.215 10.787 4.977 10.852 4.738 10.918 C 3.989 9.941 3.5 8.75 3.5 7.418 C 3.5 6.396 3.832 5.487 4.293 4.653 Z " fill="rgb(0,0,0)"/><path d=" M 10.748 7.588 C 8.628 7.302 6.397 8.432 5.426 10.762 C 3.284 11.006 1.993 12.65 2 14.332 C 2.007 16.15 3.47 17.989 5.916 17.989 L 14.68 17.989 C 16.721 17.989 18.008 16.537 18 15.053 C 17.993 13.731 16.931 12.498 15.275 12.233 C 14.767 9.55 12.852 7.873 10.748 7.588 Z  M 10.547 9.075 C 12.16 9.292 13.688 10.5 13.934 12.95 C 13.973 13.332 14.295 13.623 14.68 13.624 C 16.062 13.624 16.496 14.363 16.5 15.061 C 16.504 15.759 16.089 16.489 14.68 16.489 L 5.916 16.489 C 4.164 16.489 3.504 15.419 3.5 14.327 C 3.496 13.235 4.137 12.168 5.916 12.168 C 6.243 12.168 6.532 11.957 6.631 11.645 C 7.271 9.626 8.934 8.857 10.547 9.075 Z " fill="rgb(0,0,0)"/></g></g></svg>