<?xml version="1.0" standalone="no"?><!-- Generator: Gravit.io --><svg xmlns="http://www.w3.org/2000/svg" xmlns:xlink="http://www.w3.org/1999/xlink" style="isolation:isolate" viewBox="0 0 20 20" width="20" height="20"><defs><clipPath id="_clipPath_UH26aGqBEUVxytZeffJ008LAcAYusRHg"><rect width="20" height="20"/></clipPath></defs><g clip-path="url(#_clipPath_UH26aGqBEUVxytZeffJ008LAcAYusRHg)"><path d=" M 7.39 10.253 C 7.07 10.623 6.81 11.09 6.631 11.655 C 6.532 11.967 6.243 12.179 5.916 12.179 C 4.137 12.179 3.496 13.245 3.5 14.337 C 3.504 15.429 4.164 16.499 5.916 16.499 L 14.68 16.499 C 16.089 16.499 16.504 15.77 16.5 15.071 C 16.496 14.373 16.062 13.634 14.68 13.634 C 14.295 13.634 13.973 13.343 13.934 12.96 C 13.688 10.51 12.16 9.303 10.547 9.085 L 10.547 9.085 L 10.547 9.085 L 10.547 9.085 L 10.547 9.085 L 10.547 9.085 C 10.247 9.044 9.945 9.038 9.648 9.064 C 9.628 9.07 9.608 9.072 9.588 9.074 C 8.833 9.162 8.114 9.484 7.548 10.069 C 7.508 10.138 7.454 10.2 7.39 10.253 C 7.39 10.253 7.39 10.253 7.39 10.253 Z  M 10.373 7.559 C 10.498 7.57 10.623 7.582 10.748 7.599 L 10.748 7.599 L 10.748 7.599 L 10.748 7.599 L 10.748 7.599 L 10.748 7.599 C 12.852 7.883 14.767 9.56 15.275 12.243 C 16.931 12.508 17.993 13.741 18 15.064 C 18.008 16.547 16.721 17.999 14.68 17.999 L 5.916 17.999 C 3.47 17.999 2.007 16.16 2 14.343 C 1.993 12.66 3.284 11.016 5.426 10.773 C 5.555 10.463 5.706 10.174 5.885 9.917 C 5.248 9.424 4.85 8.648 4.85 7.786 C 4.85 6.268 6.097 5.021 7.615 5.021 C 9.057 5.021 10.255 6.146 10.373 7.559 Z  M 8.876 7.712 C 8.143 7.899 7.447 8.258 6.853 8.785 C 6.546 8.562 6.35 8.2 6.35 7.786 C 6.35 7.08 6.909 6.521 7.615 6.521 C 8.296 6.521 8.841 7.041 8.876 7.712 Z  M 7.596 2.001 C 7.177 2.008 6.844 2.352 6.85 2.771 L 6.85 3.806 C 6.842 4.082 6.985 4.34 7.223 4.48 C 7.461 4.621 7.756 4.621 7.994 4.48 C 8.232 4.34 8.375 4.082 8.367 3.806 L 8.367 2.771 C 8.37 2.565 8.29 2.368 8.144 2.223 C 7.999 2.078 7.801 1.998 7.596 2.001 L 7.596 2.001 L 7.596 2.001 L 7.596 2.001 L 7.596 2.001 Z  M 3.221 4.507 C 2.884 4.527 2.6 4.767 2.526 5.097 C 2.451 5.426 2.603 5.765 2.898 5.929 L 3.793 6.444 C 4.156 6.654 4.62 6.53 4.83 6.167 C 5.04 5.804 4.916 5.34 4.553 5.13 L 3.656 4.612 C 3.525 4.534 3.373 4.497 3.221 4.507 L 3.221 4.507 L 3.221 4.507 L 3.221 4.507 Z  M 4.207 8.989 C 4.062 8.985 3.918 9.022 3.793 9.097 L 2.898 9.612 C 2.535 9.822 2.41 10.286 2.619 10.649 C 2.828 11.013 3.293 11.138 3.656 10.929 L 4.553 10.411 C 4.851 10.245 5.002 9.9 4.921 9.569 C 4.84 9.237 4.548 9 4.207 8.989 L 4.207 8.989 L 4.207 8.989 Z  M 11.896 4.507 C 11.777 4.515 11.661 4.551 11.559 4.612 L 10.662 5.13 C 10.299 5.34 10.175 5.804 10.385 6.167 C 10.595 6.53 11.059 6.654 11.422 6.444 L 12.316 5.929 C 12.628 5.757 12.779 5.391 12.678 5.049 C 12.577 4.707 12.252 4.482 11.896 4.507 L 11.896 4.507 Z " fill-rule="evenodd" fill="rgb(0,0,0)"/></g></svg>