<?xml version="1.0" standalone="no"?><!-- Generator: Gravit.io --><svg xmlns="http://www.w3.org/2000/svg" xmlns:xlink="http://www.w3.org/1999/xlink" style="isolation:isolate" viewBox="0 0 20 20" width="20" height="20"><defs><clipPath id="_clipPath_wUKnez1hUPF8mi0shLdbhGZNpSyCG9SY"><rect width="20" height="20"/></clipPath></defs><g clip-path="url(#_clipPath_wUKnez1hUPF8mi0shLdbhGZNpSyCG9SY)"><path d=" M 2.75 2 C 2.336 2 2 2.336 2 2.75 L 2 3.557 C 2 11.525 8.475 18 16.443 18 L 17.25 18 C 17.664 18 18 17.664 18 17.25 L 18 12.818 C 18 12.404 17.664 12.068 17.25 12.068 L 16.443 12.068 C 15.517 12.068 14.631 11.922 13.805 11.648 C 13.801 11.647 13.797 11.646 13.793 11.645 C 13.261 11.479 12.638 11.61 12.217 12.031 L 9.826 14.424 C 8.073 13.352 6.648 11.927 5.576 10.174 L 7.967 7.785 C 8.391 7.363 8.522 6.739 8.355 6.207 C 8.354 6.203 8.353 6.199 8.352 6.195 C 8.078 5.368 7.932 4.484 7.932 3.557 L 7.932 2.75 C 7.932 2.336 7.596 2 7.182 2 L 2.75 2 Z  M 3.5 3.5 L 6.432 3.5 L 6.432 3.557 C 6.432 4.644 6.605 5.689 6.928 6.666 L 6.924 6.654 C 6.934 6.686 6.936 6.693 6.908 6.721 C 6.908 6.721 6.908 6.722 6.908 6.723 L 4.723 8.906 C 3.973 7.267 3.5 5.48 3.5 3.557 L 3.5 3.5 Z  M 13.334 13.072 C 14.311 13.395 15.357 13.568 16.443 13.568 L 16.5 13.568 L 16.5 16.5 L 16.443 16.5 C 14.52 16.5 12.733 16.027 11.094 15.277 L 13.277 13.092 C 13.308 13.061 13.314 13.066 13.346 13.076 L 13.334 13.072 Z " fill="rgb(0,0,0)"/></g></svg>