<?xml version="1.0" standalone="no"?><!-- Generator: Gravit.io --><svg xmlns="http://www.w3.org/2000/svg" xmlns:xlink="http://www.w3.org/1999/xlink" style="isolation:isolate" viewBox="0 0 20 20" width="20" height="20"><defs><clipPath id="_clipPath_h8rDq3ZKFQ2hit3JzweAmlcqeKfUFuzW"><rect width="20" height="20"/></clipPath></defs><g clip-path="url(#_clipPath_h8rDq3ZKFQ2hit3JzweAmlcqeKfUFuzW)"><path d=" M 3.738 2 C 3.536 1.995 3.34 2.072 3.196 2.213 C 3.051 2.354 2.97 2.548 2.97 2.75 L 2.97 17.25 C 2.97 17.518 3.113 17.766 3.345 17.9 C 3.577 18.034 3.863 18.034 4.095 17.9 L 16.654 10.65 C 16.886 10.516 17.03 10.268 17.03 10 C 17.03 9.731 16.886 9.483 16.654 9.349 L 4.095 2.099 C 3.986 2.037 3.863 2.002 3.738 2 Z  M 4.47 4.05 L 14.777 10 L 4.47 15.949 L 4.47 4.05 Z " fill="rgb(0,0,0)"/></g></svg>