<?xml version="1.0" standalone="no"?><!-- Generator: Gravit.io --><svg xmlns="http://www.w3.org/2000/svg" xmlns:xlink="http://www.w3.org/1999/xlink" style="isolation:isolate" viewBox="0 0 20 20" width="20" height="20"><defs><clipPath id="_clipPath_706jL0ZtSepwuEVzNLzl6D4fq1lk63mK"><rect width="20" height="20"/></clipPath></defs><g clip-path="url(#_clipPath_706jL0ZtSepwuEVzNLzl6D4fq1lk63mK)"><path d=" M 10.75 9.25 L 10.75 4.85 C 10.75 4.65 10.67 4.46 10.53 4.32 C 10.39 4.18 10.2 4.1 10 4.1 C 9.8 4.1 9.61 4.18 9.47 4.32 C 9.33 4.46 9.25 4.65 9.25 4.85 L 9.25 9.25 L 4.85 9.25 C 4.65 9.25 4.46 9.33 4.32 9.47 C 4.18 9.61 4.1 9.8 4.1 10 C 4.1 10.2 4.18 10.39 4.32 10.53 C 4.46 10.67 4.65 10.75 4.85 10.75 L 9.25 10.75 L 9.25 15.15 C 9.25 15.35 9.33 15.54 9.47 15.68 C 9.61 15.82 9.8 15.9 10 15.9 C 10.2 15.9 10.39 15.82 10.53 15.68 C 10.67 15.54 10.75 15.35 10.75 15.15 L 10.75 10.75 L 15.15 10.75 C 15.35 10.75 15.54 10.67 15.68 10.53 C 15.82 10.39 15.9 10.2 15.9 10 C 15.9 9.8 15.82 9.61 15.68 9.47 C 15.54 9.33 15.35 9.25 15.15 9.25 L 10.75 9.25 Z " fill="rgb(0,0,0)"/></g></svg>