<?xml version="1.0" standalone="no"?><!-- Generator: Gravit.io --><svg xmlns="http://www.w3.org/2000/svg" xmlns:xlink="http://www.w3.org/1999/xlink" style="isolation:isolate" viewBox="0 0 20 20" width="20" height="20"><defs><clipPath id="_clipPath_94GOhAd5s8Zku6oZ87k5GoyZj1WGNqlu"><rect width="20" height="20"/></clipPath></defs><g clip-path="url(#_clipPath_94GOhAd5s8Zku6oZ87k5GoyZj1WGNqlu)"><path d=" M 10.75 9.25 L 10.75 4.75 C 10.75 4.55 10.67 4.36 10.53 4.22 C 10.39 4.08 10.2 4 10 4 C 9.8 4 9.61 4.08 9.47 4.22 C 9.33 4.36 9.25 4.55 9.25 4.75 L 9.25 9.25 L 4.75 9.25 C 4.55 9.25 4.36 9.33 4.22 9.47 C 4.08 9.61 4 9.8 4 10 C 4 10.2 4.08 10.39 4.22 10.53 C 4.36 10.67 4.55 10.75 4.75 10.75 L 9.25 10.75 L 9.25 15.25 C 9.25 15.45 9.33 15.64 9.47 15.78 C 9.61 15.92 9.8 16 10 16 C 10.2 16 10.39 15.92 10.53 15.78 C 10.67 15.64 10.75 15.45 10.75 15.25 L 10.75 10.75 L 15.25 10.75 C 15.45 10.75 15.64 10.67 15.78 10.53 C 15.92 10.39 16 10.2 16 10 C 16 9.8 15.92 9.61 15.78 9.47 C 15.64 9.33 15.45 9.25 15.25 9.25 L 10.75 9.25 Z " fill="rgb(0,0,0)"/></g></svg>