<?xml version="1.0" standalone="no"?><!-- Generator: Gravit.io --><svg xmlns="http://www.w3.org/2000/svg" xmlns:xlink="http://www.w3.org/1999/xlink" style="isolation:isolate" viewBox="0 0 20 20" width="20" height="20"><defs><clipPath id="_clipPath_9zzrMr2OiEifypP0YTgheEE0cFwg1eHK"><rect width="20" height="20"/></clipPath></defs><g clip-path="url(#_clipPath_9zzrMr2OiEifypP0YTgheEE0cFwg1eHK)"><path d=" M 10.75 10.75 L 17.25 10.75 C 17.45 10.75 17.64 10.67 17.78 10.53 C 17.92 10.39 18 10.2 18 10 C 18 7.88 17.16 5.84 15.66 4.34 C 14.16 2.84 12.12 2 10 2 C 7.88 2 5.84 2.84 4.34 4.34 C 2.84 5.84 2 7.88 2 10 L 2 10 C 2 10.2 2.08 10.39 2.22 10.53 C 2.36 10.67 2.55 10.75 2.75 10.75 L 9.25 10.75 L 9.25 15.75 C 9.25 15.95 9.17 16.14 9.03 16.28 C 8.89 16.42 8.7 16.5 8.5 16.5 C 8.3 16.5 8.11 16.42 7.97 16.28 C 7.83 16.14 7.75 15.95 7.75 15.75 C 7.75 15.55 7.67 15.36 7.53 15.22 C 7.39 15.08 7.2 15 7 15 C 6.8 15 6.61 15.08 6.47 15.22 C 6.33 15.36 6.25 15.55 6.25 15.75 C 6.25 16.35 6.49 16.92 6.91 17.34 C 7.33 17.76 7.9 18 8.5 18 C 9.1 18 9.67 17.76 10.09 17.34 C 10.51 16.92 10.75 16.35 10.75 15.75 L 10.75 10.75 Z  M 3.54 9.25 C 3.73 7.67 4.49 6.21 5.68 5.15 C 6.87 4.09 8.41 3.5 10 3.5 C 11.59 3.5 13.13 4.09 14.32 5.15 C 15.51 6.21 16.27 7.67 16.46 9.25 L 10 9.25 L 10 9.25 L 3.54 9.25 L 3.54 9.25 Z " fill-rule="evenodd" fill="rgb(0,0,0)"/></g></svg>