<?xml version="1.0" standalone="no"?><!-- Generator: Gravit.io --><svg xmlns="http://www.w3.org/2000/svg" xmlns:xlink="http://www.w3.org/1999/xlink" style="isolation:isolate" viewBox="0 0 20 20" width="20" height="20"><defs><clipPath id="_clipPath_B7JMgnuXVvJ4BCM1xFhBpjFDDdD3Km9z"><rect width="20" height="20"/></clipPath></defs><g clip-path="url(#_clipPath_B7JMgnuXVvJ4BCM1xFhBpjFDDdD3Km9z)"><path d=" M 10.748 2.03 C 8.628 1.744 6.397 2.874 5.426 5.204 C 3.284 5.448 1.993 7.091 2 8.774 C 2.007 10.592 3.47 12.431 5.916 12.431 C 6.186 12.434 6.438 12.292 6.574 12.059 C 6.711 11.825 6.711 11.536 6.574 11.302 C 6.438 11.069 6.186 10.927 5.916 10.931 C 4.164 10.931 3.504 9.861 3.5 8.768 C 3.496 7.676 4.137 6.61 5.916 6.61 C 6.243 6.61 6.532 6.398 6.631 6.087 C 7.271 4.068 8.934 3.299 10.547 3.516 C 12.16 3.734 13.688 4.942 13.934 7.391 C 13.973 7.774 14.295 8.065 14.68 8.065 C 16.062 8.065 16.496 8.804 16.5 9.503 C 16.504 10.201 16.089 10.931 14.68 10.931 C 14.409 10.927 14.158 11.069 14.021 11.302 C 13.885 11.536 13.885 11.825 14.021 12.059 C 14.158 12.292 14.409 12.434 14.68 12.431 C 16.721 12.431 18.008 10.979 18 9.495 C 17.993 8.172 16.931 6.94 15.275 6.675 C 14.767 3.991 12.852 2.314 10.748 2.03 Z  M 7.988 9.991 C 7.789 9.994 7.6 10.076 7.461 10.219 C 7.323 10.362 7.247 10.554 7.25 10.753 L 7.25 16.253 C 7.246 16.523 7.388 16.775 7.622 16.911 C 7.856 17.048 8.144 17.048 8.378 16.911 C 8.612 16.775 8.754 16.523 8.75 16.253 L 8.75 10.753 C 8.753 10.55 8.674 10.354 8.53 10.211 C 8.387 10.067 8.191 9.988 7.988 9.991 Z  M 9.988 9.991 C 9.789 9.994 9.6 10.076 9.461 10.219 C 9.323 10.362 9.247 10.554 9.25 10.753 L 9.25 17.253 C 9.246 17.523 9.388 17.775 9.622 17.911 C 9.856 18.048 10.144 18.048 10.378 17.911 C 10.612 17.775 10.754 17.523 10.75 17.253 L 10.75 10.753 C 10.753 10.55 10.674 10.354 10.53 10.211 C 10.387 10.067 10.191 9.988 9.988 9.991 Z  M 11.988 9.991 C 11.789 9.994 11.6 10.076 11.461 10.219 C 11.323 10.362 11.247 10.554 11.25 10.753 L 11.25 16.253 C 11.246 16.523 11.388 16.775 11.622 16.911 C 11.856 17.048 12.144 17.048 12.378 16.911 C 12.612 16.775 12.754 16.523 12.75 16.253 L 12.75 10.753 C 12.753 10.55 12.674 10.354 12.53 10.211 C 12.387 10.067 12.191 9.988 11.988 9.991 Z " fill-rule="evenodd" fill="rgb(0,0,0)"/></g></svg>