<?xml version="1.0" standalone="no"?><!-- Generator: Gravit.io --><svg xmlns="http://www.w3.org/2000/svg" xmlns:xlink="http://www.w3.org/1999/xlink" style="isolation:isolate" viewBox="0 0 20 20" width="20" height="20"><defs><clipPath id="_clipPath_SudtetAw9DnbGATl3IhTJOvPkwkLMgYG"><rect width="20" height="20"/></clipPath></defs><g clip-path="url(#_clipPath_SudtetAw9DnbGATl3IhTJOvPkwkLMgYG)"><path d=" M 10.748 2.03 C 8.628 1.744 6.397 2.876 5.426 5.206 C 3.284 5.45 1.993 7.092 2 8.774 C 2.007 10.592 3.47 12.43 5.916 12.43 C 6.186 12.434 6.438 12.292 6.574 12.059 C 6.711 11.825 6.711 11.536 6.574 11.302 C 6.438 11.069 6.186 10.927 5.916 10.93 C 4.164 10.93 3.504 9.86 3.5 8.768 C 3.496 7.676 4.137 6.612 5.916 6.612 C 6.243 6.612 6.532 6.4 6.631 6.089 C 7.271 4.07 8.934 3.299 10.547 3.516 C 12.16 3.734 13.688 4.942 13.934 7.391 C 13.972 7.775 14.294 8.067 14.68 8.067 C 16.062 8.067 16.496 8.805 16.5 9.503 C 16.504 10.201 16.089 10.93 14.68 10.93 C 14.409 10.927 14.158 11.069 14.021 11.302 C 13.885 11.536 13.885 11.825 14.021 12.059 C 14.158 12.292 14.409 12.434 14.68 12.43 C 16.721 12.43 18.008 10.979 18 9.495 C 17.993 8.172 16.931 6.94 15.275 6.675 C 14.767 3.992 12.852 2.314 10.748 2.03 Z  M 8.135 9.993 C 7.721 9.999 7.391 10.339 7.396 10.753 L 7.396 16.253 C 7.393 16.523 7.535 16.775 7.768 16.911 C 8.002 17.048 8.291 17.048 8.525 16.911 C 8.758 16.775 8.9 16.523 8.896 16.253 L 8.896 10.753 C 8.899 10.55 8.82 10.355 8.676 10.212 C 8.533 10.069 8.337 9.99 8.135 9.993 Z  M 10.285 9.993 C 9.872 9.999 9.541 10.339 9.547 10.753 L 9.547 17.253 C 9.543 17.523 9.685 17.775 9.919 17.911 C 10.152 18.048 10.441 18.048 10.675 17.911 C 10.909 17.775 11.051 17.523 11.047 17.253 L 11.047 10.753 C 11.05 10.55 10.97 10.355 10.827 10.212 C 10.683 10.069 10.488 9.99 10.285 9.993 Z  M 12.437 9.993 C 12.024 9.999 11.694 10.339 11.699 10.753 L 11.699 16.253 C 11.695 16.523 11.837 16.775 12.071 16.911 C 12.305 17.048 12.594 17.048 12.827 16.911 C 13.061 16.775 13.203 16.523 13.199 16.253 L 13.199 10.753 C 13.202 10.55 13.122 10.355 12.979 10.212 C 12.835 10.069 12.64 9.99 12.437 9.993 Z " fill-rule="evenodd" fill="rgb(0,0,0)"/></g></svg>