<?xml version="1.0" standalone="no"?><!-- Generator: Gravit.io --><svg xmlns="http://www.w3.org/2000/svg" xmlns:xlink="http://www.w3.org/1999/xlink" style="isolation:isolate" viewBox="0 0 20 20" width="20" height="20"><defs><clipPath id="_clipPath_buJgVea3DwWKMimwD7q53quAMMrA8NBw"><rect width="20" height="20"/></clipPath></defs><g clip-path="url(#_clipPath_buJgVea3DwWKMimwD7q53quAMMrA8NBw)"><path d=" M 3.709 1.99 C 3.296 1.996 2.965 2.336 2.971 2.75 L 2.971 17.25 C 2.967 17.52 3.109 17.772 3.343 17.908 C 3.576 18.044 3.865 18.044 4.099 17.908 C 4.332 17.772 4.475 17.52 4.471 17.25 L 4.471 11.3 L 9.625 14.275 L 15.904 17.9 C 16.137 18.034 16.423 18.034 16.655 17.9 C 16.887 17.766 17.03 17.518 17.029 17.25 L 17.029 10 L 17.029 2.75 C 17.03 2.482 16.887 2.234 16.655 2.099 C 16.423 1.965 16.137 1.965 15.904 2.099 L 9.625 5.724 L 4.471 8.699 L 4.471 2.75 C 4.473 2.547 4.394 2.352 4.25 2.209 C 4.107 2.066 3.912 1.987 3.709 1.99 Z  M 15.529 4.05 L 15.529 10 L 15.529 15.949 L 10.375 12.974 L 5.223 10 L 10.375 7.025 L 15.529 4.05 Z " fill-rule="evenodd" fill="rgb(0,0,0)"/></g></svg>