<?xml version="1.0" standalone="no"?><!-- Generator: Gravit.io --><svg xmlns="http://www.w3.org/2000/svg" xmlns:xlink="http://www.w3.org/1999/xlink" style="isolation:isolate" viewBox="0 0 20 20" width="20" height="20"><defs><clipPath id="_clipPath_odLvATl18npAj45UfcmlL2UBh8zGcZeT"><rect width="20" height="20"/></clipPath></defs><g clip-path="url(#_clipPath_odLvATl18npAj45UfcmlL2UBh8zGcZeT)"><path d=" M 10.748 2.701 C 8.628 2.415 6.397 3.545 5.426 5.875 C 3.284 6.119 1.993 7.762 2 9.445 C 2.007 11.262 3.47 13.101 5.916 13.101 L 14.68 13.101 C 16.721 13.101 18.008 11.649 18 10.166 C 17.993 8.843 16.931 7.61 15.275 7.345 C 14.767 4.662 12.852 2.985 10.748 2.701 Z  M 10.547 4.187 C 12.16 4.405 13.688 5.612 13.934 8.062 C 13.973 8.445 14.295 8.736 14.68 8.736 C 16.062 8.736 16.496 9.475 16.5 10.174 C 16.504 10.872 16.089 11.601 14.68 11.601 L 5.916 11.601 C 4.164 11.601 3.504 10.531 3.5 9.439 C 3.496 8.347 4.137 7.281 5.916 7.281 C 6.243 7.281 6.532 7.069 6.631 6.758 C 7.271 4.739 8.934 3.969 10.547 4.187 Z  M 3.01 13.843 C 2.877 13.851 2.752 13.911 2.664 14.011 C 2.664 14.011 2.51 14.182 2.355 14.407 C 2.201 14.633 2 14.876 2 15.306 C 2 15.873 2.47 16.343 3.037 16.343 C 3.605 16.343 4.074 15.873 4.074 15.306 C 4.074 14.877 3.873 14.633 3.719 14.407 C 3.564 14.182 3.41 14.011 3.41 14.011 C 3.309 13.897 3.162 13.835 3.01 13.843 Z  M 6.485 14.843 C 6.352 14.851 6.227 14.911 6.139 15.011 C 6.139 15.011 5.985 15.182 5.83 15.407 C 5.676 15.633 5.475 15.876 5.475 16.306 C 5.475 16.873 5.945 17.343 6.512 17.343 C 7.08 17.343 7.549 16.873 7.549 16.306 C 7.549 15.877 7.348 15.633 7.194 15.407 C 7.039 15.182 6.885 15.011 6.885 15.011 C 6.784 14.897 6.637 14.835 6.485 14.843 Z  M 9.96 14.324 C 9.827 14.331 9.702 14.392 9.614 14.491 C 9.614 14.491 9.46 14.663 9.305 14.888 C 9.151 15.113 8.95 15.357 8.95 15.786 C 8.95 16.354 9.42 16.824 9.987 16.824 C 10.555 16.824 11.024 16.354 11.024 15.786 C 11.024 15.358 10.823 15.113 10.669 14.888 C 10.514 14.663 10.36 14.491 10.36 14.491 C 10.259 14.377 10.112 14.316 9.96 14.324 Z  M 13.435 14.824 C 13.302 14.831 13.177 14.892 13.089 14.991 C 13.089 14.991 12.935 15.163 12.78 15.388 C 12.626 15.613 12.425 15.857 12.425 16.286 C 12.425 16.854 12.895 17.324 13.462 17.324 C 14.03 17.324 14.499 16.854 14.499 16.286 C 14.499 15.858 14.298 15.613 14.144 15.388 C 13.989 15.163 13.835 14.991 13.835 14.991 C 13.734 14.877 13.587 14.816 13.435 14.824 Z  M 16.91 13.824 C 16.777 13.831 16.652 13.892 16.564 13.991 C 16.564 13.991 16.41 14.163 16.255 14.388 C 16.101 14.613 15.9 14.857 15.9 15.286 C 15.9 15.854 16.37 16.324 16.937 16.324 C 17.505 16.324 17.974 15.854 17.974 15.286 C 17.974 14.858 17.773 14.613 17.619 14.388 C 17.464 14.163 17.31 13.991 17.31 13.991 C 17.209 13.877 17.062 13.816 16.91 13.824 Z " fill-rule="evenodd" fill="rgb(0,0,0)"/></g></svg>