<?xml version="1.0" standalone="no"?><!-- Generator: Gravit.io --><svg xmlns="http://www.w3.org/2000/svg" xmlns:xlink="http://www.w3.org/1999/xlink" style="isolation:isolate" viewBox="0 0 20 20" width="20" height="20"><defs><clipPath id="_clipPath_Os1r74H7hAZ0v5P4qpbdHn2D6QimBINn"><rect width="20" height="20"/></clipPath></defs><g clip-path="url(#_clipPath_Os1r74H7hAZ0v5P4qpbdHn2D6QimBINn)"><path d=" M 10.748 2.701 C 8.628 2.415 6.397 3.545 5.426 5.875 C 3.284 6.119 1.993 7.762 2 9.445 C 2.007 11.262 3.47 13.101 5.916 13.101 L 14.68 13.101 C 16.721 13.101 18.008 11.649 18 10.166 C 17.993 8.843 16.931 7.61 15.275 7.345 C 14.767 4.662 12.852 2.985 10.748 2.701 Z  M 10.547 4.187 C 12.16 4.405 13.688 5.612 13.934 8.062 C 13.973 8.445 14.295 8.736 14.68 8.736 C 16.062 8.736 16.496 9.475 16.5 10.174 C 16.504 10.872 16.089 11.601 14.68 11.601 L 5.916 11.601 C 4.164 11.601 3.504 10.531 3.5 9.439 C 3.496 8.347 4.137 7.281 5.916 7.281 C 6.243 7.281 6.532 7.069 6.631 6.758 C 7.271 4.739 8.934 3.969 10.547 4.187 Z  M 6.526 14.843 C 6.393 14.851 6.268 14.911 6.18 15.011 C 6.18 15.011 6.026 15.182 5.871 15.407 C 5.717 15.633 5.516 15.876 5.516 16.306 C 5.516 16.873 5.986 17.343 6.553 17.343 C 7.121 17.343 7.59 16.873 7.59 16.306 C 7.59 15.877 7.389 15.633 7.235 15.407 C 7.08 15.182 6.926 15.011 6.926 15.011 C 6.825 14.897 6.678 14.835 6.526 14.843 Z  M 13.376 14.824 C 13.243 14.831 13.118 14.892 13.03 14.991 C 13.03 14.991 12.876 15.163 12.721 15.388 C 12.567 15.613 12.366 15.857 12.366 16.286 C 12.366 16.854 12.836 17.324 13.403 17.324 C 13.971 17.324 14.44 16.854 14.44 16.286 C 14.44 15.858 14.239 15.613 14.085 15.388 C 13.93 15.163 13.776 14.991 13.776 14.991 C 13.675 14.877 13.528 14.816 13.376 14.824 Z  M 3.125 13.843 C 2.938 13.845 2.789 13.999 2.792 14.185 L 2.792 14.508 L 2.512 14.346 C 2.407 14.284 2.277 14.282 2.172 14.342 C 2.066 14.403 2.001 14.515 2.001 14.637 C 2.002 14.759 2.068 14.871 2.174 14.93 L 2.453 15.092 L 2.174 15.253 C 2.067 15.313 2.001 15.425 2 15.546 C 1.999 15.668 2.064 15.781 2.17 15.841 C 2.276 15.902 2.406 15.901 2.51 15.838 L 2.79 15.677 L 2.79 16 C 2.788 16.122 2.852 16.235 2.957 16.297 C 3.062 16.358 3.192 16.358 3.297 16.297 C 3.403 16.236 3.467 16.123 3.465 16.001 L 3.465 15.678 L 3.745 15.84 C 3.85 15.902 3.979 15.903 4.085 15.843 C 4.191 15.783 4.256 15.67 4.255 15.548 C 4.255 15.427 4.189 15.315 4.083 15.255 L 3.804 15.094 L 4.083 14.932 C 4.19 14.873 4.256 14.761 4.256 14.639 C 4.257 14.518 4.192 14.405 4.087 14.345 C 3.981 14.284 3.851 14.285 3.747 14.347 L 3.467 14.508 L 3.467 14.185 C 3.468 14.094 3.433 14.006 3.368 13.942 C 3.304 13.877 3.216 13.842 3.125 13.843 Z  M 9.975 14.323 C 9.788 14.325 9.639 14.479 9.642 14.665 L 9.642 14.988 L 9.362 14.826 C 9.257 14.764 9.127 14.762 9.022 14.822 C 8.916 14.883 8.851 14.995 8.851 15.117 C 8.852 15.239 8.918 15.351 9.024 15.41 L 9.303 15.572 L 9.024 15.733 C 8.917 15.793 8.851 15.905 8.85 16.026 C 8.849 16.148 8.914 16.261 9.02 16.321 C 9.126 16.382 9.256 16.381 9.36 16.318 L 9.64 16.157 L 9.64 16.48 C 9.638 16.602 9.702 16.715 9.807 16.777 C 9.912 16.838 10.042 16.838 10.147 16.777 C 10.253 16.716 10.317 16.603 10.315 16.481 L 10.315 16.158 L 10.595 16.32 C 10.7 16.382 10.829 16.383 10.935 16.323 C 11.041 16.263 11.106 16.15 11.105 16.028 C 11.105 15.907 11.039 15.795 10.933 15.735 L 10.654 15.574 L 10.933 15.412 C 11.04 15.353 11.106 15.241 11.106 15.119 C 11.107 14.998 11.042 14.885 10.937 14.825 C 10.831 14.764 10.701 14.765 10.597 14.827 L 10.317 14.988 L 10.317 14.666 C 10.318 14.574 10.283 14.486 10.218 14.422 C 10.154 14.357 10.066 14.322 9.975 14.323 Z  M 16.825 13.824 C 16.638 13.826 16.489 13.979 16.492 14.166 L 16.492 14.489 L 16.212 14.327 C 16.107 14.264 15.977 14.263 15.872 14.323 C 15.766 14.383 15.701 14.496 15.701 14.618 C 15.702 14.739 15.768 14.852 15.874 14.911 L 16.153 15.073 L 15.874 15.234 C 15.767 15.293 15.701 15.405 15.7 15.527 C 15.699 15.649 15.764 15.762 15.87 15.822 C 15.976 15.883 16.106 15.881 16.21 15.819 L 16.49 15.658 L 16.49 15.981 C 16.488 16.103 16.552 16.216 16.657 16.277 C 16.762 16.339 16.892 16.339 16.997 16.278 C 17.103 16.216 17.167 16.103 17.165 15.982 L 17.165 15.659 L 17.445 15.82 C 17.55 15.883 17.679 15.884 17.785 15.823 C 17.891 15.763 17.956 15.651 17.955 15.529 C 17.955 15.408 17.889 15.296 17.783 15.236 L 17.504 15.074 L 17.783 14.913 C 17.89 14.854 17.956 14.742 17.956 14.62 C 17.957 14.498 17.892 14.386 17.787 14.325 C 17.681 14.265 17.551 14.266 17.447 14.328 L 17.167 14.489 L 17.167 14.166 C 17.168 14.075 17.133 13.987 17.068 13.923 C 17.004 13.858 16.916 13.822 16.825 13.824 Z " fill-rule="evenodd" fill="rgb(0,0,0)"/></g></svg>