<?xml version="1.0" standalone="no"?><!-- Generator: Gravit.io --><svg xmlns="http://www.w3.org/2000/svg" xmlns:xlink="http://www.w3.org/1999/xlink" style="isolation:isolate" viewBox="0 0 20 20" width="20" height="20"><defs><clipPath id="_clipPath_Ccy6yYG1zxkWHBjOOVkXogWCyNnCmmsI"><rect width="20" height="20"/></clipPath></defs><g clip-path="url(#_clipPath_Ccy6yYG1zxkWHBjOOVkXogWCyNnCmmsI)"><path d=" M 11.81 6 L 16.25 6 C 16.71 6 17.16 6.18 17.49 6.51 C 17.82 6.84 18 7.29 18 7.75 L 18 16.25 C 18 16.71 17.82 17.16 17.49 17.49 C 17.16 17.82 16.71 18 16.25 18 L 3.75 18 C 3.29 18 2.84 17.82 2.51 17.49 C 2.18 17.16 2 16.71 2 16.25 L 2 7.75 C 2 7.29 2.18 6.84 2.51 6.51 C 2.84 6.18 3.29 6 3.75 6 L 3.75 6 L 8.19 6 L 8.19 6 L 6.46 4.27 C 6.32 4.13 6.24 3.94 6.24 3.74 C 6.24 3.54 6.32 3.35 6.46 3.21 C 6.6 3.07 6.79 2.99 6.99 2.99 C 7.19 2.99 7.38 3.07 7.52 3.21 L 10 5.69 L 13.47 2.22 C 13.61 2.08 13.8 2 14 2 C 14.2 2 14.39 2.08 14.53 2.22 C 14.67 2.36 14.75 2.55 14.75 2.75 C 14.75 2.95 14.67 3.14 14.53 3.28 L 11.81 6 Z  M 3.75 7.5 L 10 7.5 L 10 7.5 L 16.25 7.5 C 16.32 7.5 16.38 7.53 16.43 7.57 C 16.47 7.62 16.5 7.68 16.5 7.75 L 16.5 16.25 C 16.5 16.32 16.47 16.38 16.43 16.43 C 16.38 16.47 16.32 16.5 16.25 16.5 L 3.75 16.5 C 3.68 16.5 3.62 16.47 3.57 16.43 C 3.53 16.38 3.5 16.32 3.5 16.25 L 3.5 7.75 C 3.5 7.68 3.53 7.62 3.57 7.57 C 3.62 7.53 3.68 7.5 3.75 7.5 L 3.75 7.5 L 3.75 7.5 Z " fill-rule="evenodd" fill="rgb(0,0,0)"/></g></svg>