<?xml version="1.0" standalone="no"?><!-- Generator: Gravit.io --><svg xmlns="http://www.w3.org/2000/svg" xmlns:xlink="http://www.w3.org/1999/xlink" style="isolation:isolate" viewBox="0 0 20 20" width="20" height="20"><defs><clipPath id="_clipPath_KAi9w7M67KKuwxjrLgaKjzSozhGlGCBK"><rect width="20" height="20"/></clipPath></defs><g clip-path="url(#_clipPath_KAi9w7M67KKuwxjrLgaKjzSozhGlGCBK)"><path d=" M 10.51 7.973 L 10.51 3.97 L 10.51 3.97 C 10.51 3.84 10.45 3.72 10.36 3.63 C 10.26 3.54 10.14 3.5 10.01 3.5 C 9.87 3.5 9.74 3.55 9.64 3.64 C 9.54 3.74 9.49 3.87 9.49 4 L 9.49 7.989 L 10.51 7.973 Z  M 12.01 3.96 L 12.01 12.2 C 12.79 12.81 13.25 13.75 13.25 14.75 C 13.25 15.61 12.91 16.44 12.3 17.05 C 11.69 17.66 10.86 18 10 18 C 9.14 18 8.31 17.66 7.7 17.05 C 7.09 16.44 6.75 15.61 6.75 14.75 C 6.75 13.75 7.21 12.81 7.99 12.2 L 7.99 4 C 7.99 4 7.99 4 7.99 4 C 7.99 3.47 8.2 2.96 8.58 2.58 C 8.95 2.21 9.46 2 9.99 2 C 10.52 1.99 11.03 2.19 11.4 2.56 C 11.78 2.92 12 3.42 12.01 3.95 C 12.01 3.95 12.01 3.96 12.01 3.96 L 12.01 3.96 Z " fill-rule="evenodd" fill="rgb(0,0,0)"/></g></svg>