<?xml version="1.0" standalone="no"?><!-- Generator: Gravit.io --><svg xmlns="http://www.w3.org/2000/svg" xmlns:xlink="http://www.w3.org/1999/xlink" style="isolation:isolate" viewBox="0 0 20 20" width="20" height="20"><defs><clipPath id="_clipPath_YLAT7XzHXg7i1MYqfsqK8nObFP2Xz0cr"><rect width="20" height="20"/></clipPath></defs><g clip-path="url(#_clipPath_YLAT7XzHXg7i1MYqfsqK8nObFP2Xz0cr)"><g><path d=" M 5.888 13.104 C 5.755 13.112 5.631 13.172 5.543 13.272 C 5.543 13.272 5.389 13.444 5.234 13.669 C 5.079 13.894 4.879 14.138 4.879 14.567 C 4.879 15.135 5.348 15.604 5.916 15.604 C 6.483 15.604 6.953 15.135 6.953 14.567 C 6.953 14.138 6.752 13.894 6.597 13.669 C 6.443 13.444 6.289 13.272 6.289 13.272 C 6.188 13.158 6.04 13.096 5.888 13.104 Z " fill="rgb(0,0,0)"/><path d=" M 14.61 13.104 C 14.477 13.112 14.353 13.172 14.264 13.272 C 14.264 13.272 14.11 13.444 13.956 13.669 C 13.801 13.894 13.6 14.138 13.6 14.567 C 13.6 15.135 14.07 15.604 14.637 15.604 C 15.205 15.604 15.674 15.135 15.674 14.567 C 15.674 14.138 15.473 13.894 15.319 13.669 C 15.165 13.444 15.01 13.272 15.01 13.272 C 14.909 13.158 14.762 13.096 14.61 13.104 Z " fill="rgb(0,0,0)"/><path d=" M 10.748 2.032 C 8.628 1.746 6.397 2.877 5.426 5.208 C 3.284 5.451 1.993 7.093 2 8.776 C 2.007 10.593 3.47 12.434 5.916 12.434 C 6.186 12.438 6.438 12.296 6.574 12.062 C 6.711 11.829 6.711 11.54 6.574 11.306 C 6.438 11.072 6.186 10.93 5.916 10.934 C 4.164 10.934 3.504 9.862 3.5 8.77 C 3.496 7.678 4.137 6.614 5.916 6.614 C 6.243 6.614 6.532 6.402 6.631 6.09 C 7.271 4.072 8.934 3.301 10.547 3.518 C 12.16 3.736 13.688 4.943 13.934 7.393 C 13.972 7.777 14.294 8.069 14.68 8.069 C 16.062 8.069 16.496 8.806 16.5 9.504 C 16.504 10.203 16.089 10.934 14.68 10.934 C 14.409 10.93 14.158 11.072 14.021 11.306 C 13.885 11.54 13.885 11.829 14.021 12.062 C 14.158 12.296 14.409 12.438 14.68 12.434 C 16.721 12.434 18.008 10.981 18 9.497 C 17.993 8.174 16.932 6.942 15.277 6.676 C 14.769 3.993 12.853 2.316 10.748 2.032 Z " fill="rgb(0,0,0)"/><path d=" M 9.368 9.111 C 9.083 9.111 8.83 9.293 8.74 9.563 L 7.479 13.348 C 7.336 13.777 7.655 14.221 8.107 14.221 L 9.206 14.221 L 8.4 17.133 C 8.148 17.885 9.192 18.365 9.6 17.685 L 12.46 12.639 C 12.726 12.197 12.408 11.635 11.892 11.635 L 10.946 11.635 L 11.728 10.069 C 11.948 9.629 11.627 9.111 11.135 9.111 L 9.368 9.111 Z " fill="rgb(0,0,0)"/></g></g></svg>