<?xml version="1.0" standalone="no"?><!-- Generator: Gravit.io --><svg xmlns="http://www.w3.org/2000/svg" xmlns:xlink="http://www.w3.org/1999/xlink" style="isolation:isolate" viewBox="0 0 20 20" width="20" height="20"><defs><clipPath id="_clipPath_oRHsoxUtQ81miyRKvFa906bMZ9LxLMsc"><rect width="20" height="20"/></clipPath></defs><g clip-path="url(#_clipPath_oRHsoxUtQ81miyRKvFa906bMZ9LxLMsc)"><g><path d=" M 10.748 2.02 C 8.628 1.734 6.397 2.866 5.426 5.196 C 3.284 5.44 1.993 7.082 2 8.764 C 2.007 10.582 3.47 12.423 5.916 12.423 C 6.186 12.426 6.438 12.284 6.574 12.051 C 6.711 11.817 6.711 11.528 6.574 11.295 C 6.438 11.061 6.186 10.919 5.916 10.923 C 4.164 10.923 3.504 9.851 3.5 8.759 C 3.496 7.667 4.137 6.602 5.916 6.602 C 6.243 6.602 6.532 6.391 6.631 6.079 C 7.271 4.06 8.934 3.289 10.547 3.507 C 12.16 3.724 13.688 4.932 13.934 7.382 C 13.972 7.765 14.294 8.057 14.68 8.057 C 16.062 8.057 16.496 8.794 16.5 9.493 C 16.504 10.192 16.089 10.923 14.68 10.923 C 14.409 10.919 14.158 11.061 14.021 11.295 C 13.885 11.528 13.885 11.817 14.021 12.051 C 14.158 12.284 14.409 12.426 14.68 12.423 C 16.721 12.423 18.008 10.969 18 9.485 C 17.993 8.163 16.932 6.93 15.277 6.665 C 14.769 3.981 12.853 2.304 10.748 2.02 Z " fill="rgb(0,0,0)"/><path d=" M 9.368 9.1 C 9.083 9.1 8.83 9.282 8.74 9.552 L 7.479 13.337 C 7.336 13.766 7.655 14.21 8.107 14.21 L 9.206 14.21 L 8.4 17.122 C 8.148 17.874 9.192 18.354 9.6 17.674 L 12.46 12.628 C 12.726 12.186 12.408 11.624 11.892 11.624 L 10.946 11.624 L 11.728 10.058 C 11.948 9.618 11.627 9.1 11.135 9.1 L 9.368 9.1 Z " fill="rgb(0,0,0)"/><path d=" M 5.904 12.903 C 5.491 12.91 5.161 13.249 5.166 13.663 L 5.166 17.262 C 5.162 17.533 5.304 17.785 5.538 17.921 C 5.772 18.057 6.06 18.057 6.294 17.921 C 6.528 17.785 6.67 17.533 6.666 17.262 L 6.666 13.663 C 6.669 13.46 6.589 13.265 6.446 13.122 C 6.302 12.979 6.107 12.9 5.904 12.903 Z " fill="rgb(0,0,0)"/><path d=" M 14.668 12.903 C 14.255 12.91 13.924 13.249 13.93 13.663 L 13.93 17.262 C 13.926 17.533 14.068 17.785 14.302 17.921 C 14.535 18.057 14.824 18.057 15.058 17.921 C 15.291 17.785 15.434 17.533 15.43 17.262 L 15.43 13.663 C 15.432 13.46 15.353 13.265 15.209 13.122 C 15.066 12.979 14.871 12.9 14.668 12.903 Z " fill="rgb(0,0,0)"/><path d=" M 3.488 12.602 C 3.075 12.609 2.745 12.949 2.75 13.362 L 2.75 15.964 C 2.746 16.234 2.888 16.486 3.122 16.622 C 3.356 16.758 3.644 16.758 3.878 16.622 C 4.112 16.486 4.254 16.234 4.25 15.964 L 4.25 13.362 C 4.253 13.159 4.173 12.964 4.03 12.821 C 3.886 12.678 3.691 12.599 3.488 12.602 Z " fill="rgb(0,0,0)"/><path d=" M 17.088 12.302 C 16.889 12.305 16.699 12.387 16.561 12.53 C 16.423 12.672 16.346 12.864 16.35 13.063 L 16.35 15.663 C 16.346 15.933 16.488 16.185 16.722 16.321 C 16.955 16.458 17.244 16.458 17.478 16.321 C 17.711 16.185 17.853 15.933 17.85 15.663 L 17.85 13.063 C 17.853 12.86 17.774 12.665 17.63 12.521 C 17.486 12.378 17.291 12.298 17.088 12.302 Z " fill="rgb(0,0,0)"/></g></g></svg>