<?xml version="1.0" standalone="no"?><!-- Generator: Gravit.io --><svg xmlns="http://www.w3.org/2000/svg" xmlns:xlink="http://www.w3.org/1999/xlink" style="isolation:isolate" viewBox="0 0 20 20" width="20" height="20"><defs><clipPath id="_clipPath_A0XB1p00aTuA7nin37TdfoTHHk0Vou6E"><rect width="20" height="20"/></clipPath></defs><g clip-path="url(#_clipPath_A0XB1p00aTuA7nin37TdfoTHHk0Vou6E)"><path d=" M 6.49 7.25 C 6.49 7.44 6.41 7.64 6.28 7.78 C 6.14 7.92 5.95 8 5.75 8.01 C 5.55 8.01 5.36 7.93 5.21 7.79 C 5.07 7.65 4.99 7.46 4.99 7.27 C 4.97 5.84 5.46 4.46 6.37 3.37 C 7.3 2.27 8.67 1.64 10.11 1.63 C 10.83 1.63 11.55 1.79 12.2 2.11 C 12.8 2.42 13.34 2.85 13.76 3.39 C 14.18 3.93 14.49 4.53 14.7 5.18 C 14.91 5.86 15.02 6.56 15.01 7.27 C 14.99 7.99 14.74 8.68 14.3 9.24 C 13.89 9.75 13.43 10.22 12.93 10.64 C 12.36 11.12 11.84 11.67 11.4 12.27 C 10.98 12.89 10.75 13.63 10.75 14.38 C 10.75 14.58 10.67 14.77 10.53 14.91 C 10.39 15.05 10.2 15.13 10 15.13 C 9.8 15.13 9.61 15.05 9.47 14.91 C 9.33 14.77 9.25 14.58 9.25 14.38 C 9.25 13.32 9.57 12.28 10.18 11.4 C 10.69 10.7 11.29 10.06 11.96 9.49 C 12.39 9.14 12.77 8.74 13.12 8.31 C 13.36 8 13.5 7.63 13.51 7.24 C 13.51 6.7 13.43 6.15 13.27 5.63 C 13.12 5.15 12.88 4.71 12.58 4.31 C 12.29 3.95 11.94 3.66 11.53 3.45 C 11.09 3.24 10.61 3.13 10.12 3.13 C 9.12 3.14 8.17 3.58 7.52 4.34 C 6.84 5.15 6.47 6.18 6.49 7.25 Z  M 9.25 16.867 C 9.25 16.453 9.586 16.117 10 16.117 C 10.414 16.117 10.75 16.453 10.75 16.867 C 10.75 17.28 10.414 17.617 10 17.617 C 9.586 17.617 9.25 17.28 9.25 16.867 Z " fill-rule="evenodd" fill="rgb(0,0,0)"/></g></svg>