<?xml version="1.0" standalone="no"?><!-- Generator: Gravit.io --><svg xmlns="http://www.w3.org/2000/svg" xmlns:xlink="http://www.w3.org/1999/xlink" style="isolation:isolate" viewBox="0 0 20 20" width="20" height="20"><defs><clipPath id="_clipPath_96pmkHs4BkazhVjECtoYw3pboH4Eh4f7"><rect width="20" height="20"/></clipPath></defs><g clip-path="url(#_clipPath_96pmkHs4BkazhVjECtoYw3pboH4Eh4f7)"><path d=" M 10.008 2 C 9.819 2.006 9.639 2.082 9.504 2.215 L 5.124 6.531 L 2.758 6.531 C 2.344 6.532 2.008 6.867 2.008 7.281 L 2.008 12.719 C 2.008 13.133 2.344 13.469 2.758 13.469 L 5.124 13.469 L 9.504 17.785 C 9.72 17.997 10.041 18.058 10.32 17.942 C 10.598 17.825 10.78 17.552 10.78 17.25 L 10.78 2.75 C 10.78 2.548 10.698 2.353 10.553 2.212 C 10.407 2.071 10.211 1.994 10.008 2 L 10.008 2 Z  M 9.28 4.543 L 9.28 15.457 L 5.956 12.186 C 5.816 12.047 5.627 11.97 5.43 11.969 L 3.508 11.969 L 3.508 8.031 L 5.43 8.031 C 5.627 8.031 5.816 7.953 5.956 7.815 L 9.28 4.543 Z  M 15.219 7.24 C 14.806 7.247 14.476 7.587 14.481 8 L 14.481 9.25 L 13.231 9.25 C 12.961 9.246 12.709 9.389 12.573 9.622 C 12.436 9.856 12.436 10.145 12.573 10.378 C 12.709 10.612 12.961 10.754 13.231 10.75 L 14.481 10.75 L 14.481 12 C 14.477 12.271 14.619 12.522 14.853 12.659 C 15.087 12.795 15.375 12.795 15.609 12.659 C 15.843 12.522 15.985 12.271 15.981 12 L 15.981 10.75 L 17.231 10.75 C 17.501 10.754 17.753 10.612 17.889 10.378 C 18.026 10.145 18.026 9.856 17.889 9.622 C 17.753 9.389 17.501 9.246 17.231 9.25 L 15.981 9.25 L 15.981 8 C 15.984 7.798 15.904 7.603 15.761 7.459 C 15.617 7.316 15.422 7.237 15.219 7.24 Z " fill-rule="evenodd" fill="rgb(0,0,0)"/></g></svg>