<?xml version="1.0" standalone="no"?><!-- Generator: Gravit.io --><svg xmlns="http://www.w3.org/2000/svg" xmlns:xlink="http://www.w3.org/1999/xlink" style="isolation:isolate" viewBox="0 0 20 20" width="20" height="20"><defs><clipPath id="_clipPath_0z4RRoYyJkl9fqMdETwpKfl2GtDQh7Su"><rect width="20" height="20"/></clipPath></defs><g clip-path="url(#_clipPath_0z4RRoYyJkl9fqMdETwpKfl2GtDQh7Su)"><path d=" M 13.136 11.515 L 16.271 7.081 C 14.559 4.87 12.389 3.499 10 3.499 L 10 3.499 C 7.611 3.499 5.441 4.87 3.729 7.081 L 6.864 11.515 L 6.864 11.515 C 7.731 10.565 8.819 10 10 10 C 11.181 10 12.269 10.565 13.136 11.515 Z  M 10 1.999 C 6.883 1.999 4.097 3.794 2.137 6.565 C 1.954 6.825 1.954 7.171 2.137 7.431 L 9.387 17.683 C 9.527 17.882 9.756 18.001 10 18.001 C 10.244 18.001 10.473 17.882 10.613 17.683 L 17.863 7.431 C 18.046 7.171 18.046 6.825 17.863 6.565 C 15.903 3.794 13.117 1.999 10 1.999 L 10 1.999 L 10 1.999 Z " fill-rule="evenodd" fill="rgb(0,0,0)"/></g></svg>