<?xml version="1.0" standalone="no"?><!-- Generator: Gravit.io --><svg xmlns="http://www.w3.org/2000/svg" xmlns:xlink="http://www.w3.org/1999/xlink" style="isolation:isolate" viewBox="0 0 20 20" width="20" height="20"><defs><clipPath id="_clipPath_Ur2bM6TiHtspoccAsTtPccGLwoidccOU"><rect width="20" height="20"/></clipPath></defs><g clip-path="url(#_clipPath_Ur2bM6TiHtspoccAsTtPccGLwoidccOU)"><path d=" M 13.7 14.764 L 11.746 12.81 C 11.527 12.597 11.458 12.273 11.573 11.99 C 11.687 11.706 11.962 11.521 12.268 11.521 L 12.268 11.521 C 12.471 11.521 12.666 11.603 12.807 11.749 L 14.761 13.703 L 16.715 11.749 C 16.851 11.61 17.036 11.528 17.231 11.523 C 17.54 11.513 17.824 11.694 17.945 11.979 C 18.066 12.264 17.999 12.594 17.778 12.81 L 15.823 14.764 L 17.778 16.718 C 17.967 16.908 18.042 17.185 17.972 17.444 C 17.903 17.703 17.7 17.906 17.441 17.975 C 17.181 18.045 16.905 17.97 16.715 17.781 L 14.761 15.826 L 12.807 17.781 C 12.617 17.97 12.341 18.044 12.082 17.974 C 11.823 17.905 11.62 17.702 11.551 17.443 C 11.482 17.184 11.556 16.908 11.746 16.718 L 13.7 14.764 Z  M 9.996 1.999 C 6.879 1.999 4.093 3.794 2.133 6.566 C 1.95 6.825 1.95 7.172 2.133 7.431 L 9.149 17.351 C 9.388 17.689 9.856 17.769 10.195 17.53 C 10.533 17.29 10.613 16.822 10.373 16.484 L 3.725 7.081 C 5.437 4.871 7.607 3.499 9.996 3.499 C 12.386 3.499 14.556 4.871 16.268 7.081 L 14.678 9.331 C 14.513 9.55 14.481 9.84 14.592 10.09 C 14.704 10.34 14.943 10.508 15.216 10.531 C 15.489 10.553 15.752 10.425 15.903 10.197 L 17.86 7.431 C 18.043 7.172 18.043 6.825 17.86 6.566 C 15.9 3.794 13.113 1.999 9.996 1.999 L 9.996 1.999 Z " fill-rule="evenodd" fill="rgb(0,0,0)"/></g></svg>