<?xml version="1.0" standalone="no"?><!-- Generator: Gravit.io --><svg xmlns="http://www.w3.org/2000/svg" xmlns:xlink="http://www.w3.org/1999/xlink" style="isolation:isolate" viewBox="0 0 20 20" width="20" height="20"><defs><clipPath id="_clipPath_AmvXvXPVLMeWXgfU0vwVqIVVCfcs5OIj"><rect width="20" height="20"/></clipPath></defs><g clip-path="url(#_clipPath_AmvXvXPVLMeWXgfU0vwVqIVVCfcs5OIj)"><path d=" M 10.156 2 C 9.263 2 8.444 2.365 7.857 2.953 C 7.667 3.143 7.594 3.419 7.663 3.678 C 7.733 3.937 7.935 4.139 8.195 4.209 C 8.454 4.278 8.73 4.203 8.919 4.014 C 9.236 3.696 9.669 3.5 10.156 3.5 C 11.13 3.5 11.906 4.276 11.906 5.25 C 11.906 6.224 11.13 7 10.156 7 L 2.781 7 C 2.51 6.996 2.259 7.138 2.122 7.372 C 1.986 7.606 1.986 7.894 2.122 8.128 C 2.259 8.362 2.51 8.504 2.781 8.5 L 10.156 8.5 C 11.942 8.5 13.406 7.036 13.406 5.25 C 13.406 3.464 11.942 2 10.156 2 Z  M 15.73 7.25 C 15.113 7.25 14.544 7.502 14.138 7.91 C 13.949 8.1 13.876 8.377 13.946 8.636 C 14.016 8.895 14.219 9.096 14.478 9.165 C 14.737 9.234 15.014 9.159 15.203 8.969 C 15.338 8.832 15.519 8.75 15.73 8.75 C 16.152 8.75 16.48 9.078 16.48 9.5 C 16.48 9.922 16.152 10.25 15.73 10.25 L 4.281 10.25 C 4.01 10.246 3.759 10.388 3.622 10.622 C 3.486 10.856 3.486 11.144 3.622 11.378 C 3.759 11.612 4.01 11.754 4.281 11.75 L 15.73 11.75 C 16.964 11.75 17.98 10.734 17.98 9.5 C 17.98 8.266 16.964 7.25 15.73 7.25 Z  M 2.781 13.5 C 2.51 13.496 2.259 13.638 2.122 13.872 C 1.986 14.106 1.986 14.394 2.122 14.628 C 2.259 14.862 2.51 15.004 2.781 15 L 14.23 15 C 14.652 15 14.98 15.328 14.98 15.75 C 14.98 16.172 14.652 16.5 14.23 16.5 C 14.019 16.5 13.838 16.418 13.703 16.281 C 13.514 16.091 13.237 16.016 12.978 16.085 C 12.719 16.154 12.516 16.355 12.446 16.614 C 12.376 16.873 12.449 17.15 12.638 17.34 C 13.044 17.748 13.613 18 14.23 18 C 15.464 18 16.48 16.984 16.48 15.75 C 16.48 14.516 15.464 13.5 14.23 13.5 L 2.781 13.5 Z " fill-rule="evenodd" fill="rgb(0,0,0)"/></g></svg>