<?xml version="1.0" standalone="no"?><!-- Generator: Gravit.io --><svg xmlns="http://www.w3.org/2000/svg" xmlns:xlink="http://www.w3.org/1999/xlink" style="isolation:isolate" viewBox="0 0 20 20" width="20" height="20"><defs><clipPath id="_clipPath_k3SrkGn3oa6zopbp8sIz8x3ruRXZTWAO"><rect width="20" height="20"/></clipPath></defs><g clip-path="url(#_clipPath_k3SrkGn3oa6zopbp8sIz8x3ruRXZTWAO)"><g><path d=" M 13.067 1.984 C 12.796 1.98 12.545 2.123 12.408 2.356 C 12.272 2.59 12.272 2.879 12.408 3.112 C 12.545 3.346 12.796 3.488 13.067 3.484 L 16.516 3.484 L 16.516 6.933 C 16.512 7.204 16.654 7.456 16.888 7.592 C 17.121 7.728 17.41 7.728 17.644 7.592 C 17.878 7.456 18.02 7.204 18.016 6.933 L 18.016 2.734 C 18.016 2.32 17.68 1.984 17.266 1.984 L 13.067 1.984 Z " fill="rgb(0,0,0)"/><path d=" M 17.252 1.976 C 17.057 1.982 16.872 2.063 16.737 2.203 L 8.561 10.379 C 8.365 10.567 8.286 10.846 8.354 11.109 C 8.423 11.372 8.628 11.577 8.891 11.646 C 9.154 11.714 9.433 11.635 9.621 11.439 L 17.797 3.264 C 18.019 3.048 18.085 2.718 17.964 2.434 C 17.844 2.149 17.561 1.968 17.252 1.976 Z " fill="rgb(0,0,0)"/><path d=" M 5.916 9.807 C 5.714 9.804 5.52 9.884 5.377 10.027 L 2.195 13.209 C 1.992 13.413 1.923 13.715 2.018 13.987 C 2.114 14.259 2.356 14.452 2.643 14.484 L 5.229 14.771 L 5.516 17.357 C 5.548 17.644 5.741 17.886 6.013 17.982 C 6.285 18.077 6.587 18.008 6.791 17.805 L 9.973 14.623 C 10.135 14.462 10.214 14.236 10.19 14.01 L 9.836 10.828 C 9.798 10.478 9.522 10.202 9.172 10.164 L 5.99 9.81 C 5.966 9.808 5.941 9.807 5.916 9.807 L 5.916 9.807 Z  M 6.184 11.342 L 8.41 11.59 L 8.658 13.816 L 6.834 15.641 L 6.654 14.01 C 6.616 13.66 6.34 13.384 5.99 13.346 L 4.36 13.166 L 6.184 11.342 Z " fill="rgb(0,0,0)"/></g></g></svg>